<?xml version="1.0" encoding="utf-8" standalone="no"?>
<!DOCTYPE svg PUBLIC "-//W3C//DTD SVG 1.1//EN"
  "http://www.w3.org/Graphics/SVG/1.1/DTD/svg11.dtd">
<!-- Created with matplotlib (http://matplotlib.org/) -->
<svg height="432pt" version="1.1" viewBox="0 0 1800 432" width="1800pt" xmlns="http://www.w3.org/2000/svg" xmlns:xlink="http://www.w3.org/1999/xlink">
 <defs>
  <style type="text/css">
*{stroke-linecap:butt;stroke-linejoin:round;}
  </style>
 </defs>
 <g id="figure_1">
  <g id="patch_1">
   <path d="M 0 432 
L 1800 432 
L 1800 0 
L 0 0 
z
" style="fill:#ffffff;"/>
  </g>
  <g id="axes_1">
   <g id="patch_2">
    <path d="M 225 378 
L 859.090909 378 
L 859.090909 51.84 
L 225 51.84 
z
" style="fill:#ffffff;"/>
   </g>
   <g id="patch_3">
    <path clip-path="url(#p80cfba6dca)" d="M 253.822314 378 
L 283.009468 378 
L 283.009468 378 
L 253.822314 378 
z
" style="fill:#1f77b4;"/>
   </g>
   <g id="patch_4">
    <path clip-path="url(#p80cfba6dca)" d="M 290.306256 378 
L 319.493409 378 
L 319.493409 378 
L 290.306256 378 
z
" style="fill:#1f77b4;"/>
   </g>
   <g id="patch_5">
    <path clip-path="url(#p80cfba6dca)" d="M 326.790198 378 
L 355.977351 378 
L 355.977351 378 
L 326.790198 378 
z
" style="fill:#1f77b4;"/>
   </g>
   <g id="patch_6">
    <path clip-path="url(#p80cfba6dca)" d="M 363.27414 378 
L 392.461293 378 
L 392.461293 378 
L 363.27414 378 
z
" style="fill:#1f77b4;"/>
   </g>
   <g id="patch_7">
    <path clip-path="url(#p80cfba6dca)" d="M 399.758081 378 
L 428.945235 378 
L 428.945235 378 
L 399.758081 378 
z
" style="fill:#1f77b4;"/>
   </g>
   <g id="patch_8">
    <path clip-path="url(#p80cfba6dca)" d="M 436.242023 378 
L 465.429177 378 
L 465.429177 378 
L 436.242023 378 
z
" style="fill:#1f77b4;"/>
   </g>
   <g id="patch_9">
    <path clip-path="url(#p80cfba6dca)" d="M 472.725965 378 
L 501.913119 378 
L 501.913119 356.256 
L 472.725965 356.256 
z
" style="fill:#1f77b4;"/>
   </g>
   <g id="patch_10">
    <path clip-path="url(#p80cfba6dca)" d="M 509.209907 378 
L 538.39706 378 
L 538.39706 263.067429 
L 509.209907 263.067429 
z
" style="fill:#1f77b4;"/>
   </g>
   <g id="patch_11">
    <path clip-path="url(#p80cfba6dca)" d="M 545.693849 378 
L 574.881002 378 
L 574.881002 163.666286 
L 545.693849 163.666286 
z
" style="fill:#1f77b4;"/>
   </g>
   <g id="patch_12">
    <path clip-path="url(#p80cfba6dca)" d="M 582.177791 378 
L 611.364944 378 
L 611.364944 98.434286 
L 582.177791 98.434286 
z
" style="fill:#1f77b4;"/>
   </g>
   <g id="patch_13">
    <path clip-path="url(#p80cfba6dca)" d="M 618.661732 378 
L 647.848886 378 
L 647.848886 79.796571 
L 618.661732 79.796571 
z
" style="fill:#1f77b4;"/>
   </g>
   <g id="patch_14">
    <path clip-path="url(#p80cfba6dca)" d="M 655.145674 378 
L 684.332828 378 
L 684.332828 67.371429 
L 655.145674 67.371429 
z
" style="fill:#1f77b4;"/>
   </g>
   <g id="patch_15">
    <path clip-path="url(#p80cfba6dca)" d="M 691.629616 378 
L 720.81677 378 
L 720.81677 67.371429 
L 691.629616 67.371429 
z
" style="fill:#1f77b4;"/>
   </g>
   <g id="patch_16">
    <path clip-path="url(#p80cfba6dca)" d="M 728.113558 378 
L 757.300711 378 
L 757.300711 67.371429 
L 728.113558 67.371429 
z
" style="fill:#1f77b4;"/>
   </g>
   <g id="patch_17">
    <path clip-path="url(#p80cfba6dca)" d="M 764.5975 378 
L 793.784653 378 
L 793.784653 67.371429 
L 764.5975 67.371429 
z
" style="fill:#1f77b4;"/>
   </g>
   <g id="patch_18">
    <path clip-path="url(#p80cfba6dca)" d="M 801.081442 378 
L 830.268595 378 
L 830.268595 67.371429 
L 801.081442 67.371429 
z
" style="fill:#1f77b4;"/>
   </g>
   <g id="patch_19">
    <path clip-path="url(#p80cfba6dca)" d="M 253.822314 378 
L 283.009468 378 
L 283.009468 378 
L 253.822314 378 
z
" style="fill:#ff7f0e;"/>
   </g>
   <g id="patch_20">
    <path clip-path="url(#p80cfba6dca)" d="M 290.306256 378 
L 319.493409 378 
L 319.493409 378 
L 290.306256 378 
z
" style="fill:#ff7f0e;"/>
   </g>
   <g id="patch_21">
    <path clip-path="url(#p80cfba6dca)" d="M 326.790198 378 
L 355.977351 378 
L 355.977351 378 
L 326.790198 378 
z
" style="fill:#ff7f0e;"/>
   </g>
   <g id="patch_22">
    <path clip-path="url(#p80cfba6dca)" d="M 363.27414 378 
L 392.461293 378 
L 392.461293 378 
L 363.27414 378 
z
" style="fill:#ff7f0e;"/>
   </g>
   <g id="patch_23">
    <path clip-path="url(#p80cfba6dca)" d="M 399.758081 378 
L 428.945235 378 
L 428.945235 378 
L 399.758081 378 
z
" style="fill:#ff7f0e;"/>
   </g>
   <g id="patch_24">
    <path clip-path="url(#p80cfba6dca)" d="M 436.242023 378 
L 465.429177 378 
L 465.429177 353.845522 
L 436.242023 353.845522 
z
" style="fill:#ff7f0e;"/>
   </g>
   <g id="patch_25">
    <path clip-path="url(#p80cfba6dca)" d="M 472.725965 378 
L 501.913119 378 
L 501.913119 305.536567 
L 472.725965 305.536567 
z
" style="fill:#ff7f0e;"/>
   </g>
   <g id="patch_26">
    <path clip-path="url(#p80cfba6dca)" d="M 509.209907 378 
L 538.39706 378 
L 538.39706 247.56582 
L 509.209907 247.56582 
z
" style="fill:#ff7f0e;"/>
   </g>
   <g id="patch_27">
    <path clip-path="url(#p80cfba6dca)" d="M 545.693849 378 
L 574.881002 378 
L 574.881002 193.45979 
L 545.693849 193.45979 
z
" style="fill:#ff7f0e;"/>
   </g>
   <g id="patch_28">
    <path clip-path="url(#p80cfba6dca)" d="M 582.177791 378 
L 611.364944 378 
L 611.364944 150.174966 
L 582.177791 150.174966 
z
" style="fill:#ff7f0e;"/>
   </g>
   <g id="patch_29">
    <path clip-path="url(#p80cfba6dca)" d="M 618.661732 378 
L 647.848886 378 
L 647.848886 119.009893 
L 618.661732 119.009893 
z
" style="fill:#ff7f0e;"/>
   </g>
   <g id="patch_30">
    <path clip-path="url(#p80cfba6dca)" d="M 655.145674 378 
L 684.332828 378 
L 684.332828 98.233177 
L 655.145674 98.233177 
z
" style="fill:#ff7f0e;"/>
   </g>
   <g id="patch_31">
    <path clip-path="url(#p80cfba6dca)" d="M 691.629616 378 
L 720.81677 378 
L 720.81677 85.173528 
L 691.629616 85.173528 
z
" style="fill:#ff7f0e;"/>
   </g>
   <g id="patch_32">
    <path clip-path="url(#p80cfba6dca)" d="M 728.113558 378 
L 757.300711 378 
L 757.300711 77.337738 
L 728.113558 77.337738 
z
" style="fill:#ff7f0e;"/>
   </g>
   <g id="patch_33">
    <path clip-path="url(#p80cfba6dca)" d="M 764.5975 378 
L 793.784653 378 
L 793.784653 72.810392 
L 764.5975 72.810392 
z
" style="fill:#ff7f0e;"/>
   </g>
   <g id="patch_34">
    <path clip-path="url(#p80cfba6dca)" d="M 801.081442 378 
L 830.268595 378 
L 830.268595 70.275079 
L 801.081442 70.275079 
z
" style="fill:#ff7f0e;"/>
   </g>
   <g id="matplotlib.axis_1">
    <g id="xtick_1">
     <g id="line2d_1">
      <defs>
       <path d="M 0 0 
L 0 3.5 
" id="m248f2c7f25" style="stroke:#000000;stroke-width:0.8;"/>
      </defs>
      <g>
       <use style="stroke:#000000;stroke-width:0.8;" x="268.415891" xlink:href="#m248f2c7f25" y="378"/>
      </g>
     </g>
     <g id="text_1">
      <!-- 0 -->
      <defs>
       <path d="M 31.78125 66.40625 
Q 24.171875 66.40625 20.328125 58.90625 
Q 16.5 51.421875 16.5 36.375 
Q 16.5 21.390625 20.328125 13.890625 
Q 24.171875 6.390625 31.78125 6.390625 
Q 39.453125 6.390625 43.28125 13.890625 
Q 47.125 21.390625 47.125 36.375 
Q 47.125 51.421875 43.28125 58.90625 
Q 39.453125 66.40625 31.78125 66.40625 
z
M 31.78125 74.21875 
Q 44.046875 74.21875 50.515625 64.515625 
Q 56.984375 54.828125 56.984375 36.375 
Q 56.984375 17.96875 50.515625 8.265625 
Q 44.046875 -1.421875 31.78125 -1.421875 
Q 19.53125 -1.421875 13.0625 8.265625 
Q 6.59375 17.96875 6.59375 36.375 
Q 6.59375 54.828125 13.0625 64.515625 
Q 19.53125 74.21875 31.78125 74.21875 
z
" id="DejaVuSans-30"/>
      </defs>
      <g transform="translate(265.234641 392.598437)scale(0.1 -0.1)">
       <use xlink:href="#DejaVuSans-30"/>
      </g>
     </g>
    </g>
    <g id="xtick_2">
     <g id="line2d_2">
      <g>
       <use style="stroke:#000000;stroke-width:0.8;" x="341.383774" xlink:href="#m248f2c7f25" y="378"/>
      </g>
     </g>
     <g id="text_2">
      <!-- 2 -->
      <defs>
       <path d="M 19.1875 8.296875 
L 53.609375 8.296875 
L 53.609375 0 
L 7.328125 0 
L 7.328125 8.296875 
Q 12.9375 14.109375 22.625 23.890625 
Q 32.328125 33.6875 34.8125 36.53125 
Q 39.546875 41.84375 41.421875 45.53125 
Q 43.3125 49.21875 43.3125 52.78125 
Q 43.3125 58.59375 39.234375 62.25 
Q 35.15625 65.921875 28.609375 65.921875 
Q 23.96875 65.921875 18.8125 64.3125 
Q 13.671875 62.703125 7.8125 59.421875 
L 7.8125 69.390625 
Q 13.765625 71.78125 18.9375 73 
Q 24.125 74.21875 28.421875 74.21875 
Q 39.75 74.21875 46.484375 68.546875 
Q 53.21875 62.890625 53.21875 53.421875 
Q 53.21875 48.921875 51.53125 44.890625 
Q 49.859375 40.875 45.40625 35.40625 
Q 44.1875 33.984375 37.640625 27.21875 
Q 31.109375 20.453125 19.1875 8.296875 
z
" id="DejaVuSans-32"/>
      </defs>
      <g transform="translate(338.202524 392.598437)scale(0.1 -0.1)">
       <use xlink:href="#DejaVuSans-32"/>
      </g>
     </g>
    </g>
    <g id="xtick_3">
     <g id="line2d_3">
      <g>
       <use style="stroke:#000000;stroke-width:0.8;" x="414.351658" xlink:href="#m248f2c7f25" y="378"/>
      </g>
     </g>
     <g id="text_3">
      <!-- 4 -->
      <defs>
       <path d="M 37.796875 64.3125 
L 12.890625 25.390625 
L 37.796875 25.390625 
z
M 35.203125 72.90625 
L 47.609375 72.90625 
L 47.609375 25.390625 
L 58.015625 25.390625 
L 58.015625 17.1875 
L 47.609375 17.1875 
L 47.609375 0 
L 37.796875 0 
L 37.796875 17.1875 
L 4.890625 17.1875 
L 4.890625 26.703125 
z
" id="DejaVuSans-34"/>
      </defs>
      <g transform="translate(411.170408 392.598437)scale(0.1 -0.1)">
       <use xlink:href="#DejaVuSans-34"/>
      </g>
     </g>
    </g>
    <g id="xtick_4">
     <g id="line2d_4">
      <g>
       <use style="stroke:#000000;stroke-width:0.8;" x="487.319542" xlink:href="#m248f2c7f25" y="378"/>
      </g>
     </g>
     <g id="text_4">
      <!-- 6 -->
      <defs>
       <path d="M 33.015625 40.375 
Q 26.375 40.375 22.484375 35.828125 
Q 18.609375 31.296875 18.609375 23.390625 
Q 18.609375 15.53125 22.484375 10.953125 
Q 26.375 6.390625 33.015625 6.390625 
Q 39.65625 6.390625 43.53125 10.953125 
Q 47.40625 15.53125 47.40625 23.390625 
Q 47.40625 31.296875 43.53125 35.828125 
Q 39.65625 40.375 33.015625 40.375 
z
M 52.59375 71.296875 
L 52.59375 62.3125 
Q 48.875 64.0625 45.09375 64.984375 
Q 41.3125 65.921875 37.59375 65.921875 
Q 27.828125 65.921875 22.671875 59.328125 
Q 17.53125 52.734375 16.796875 39.40625 
Q 19.671875 43.65625 24.015625 45.921875 
Q 28.375 48.1875 33.59375 48.1875 
Q 44.578125 48.1875 50.953125 41.515625 
Q 57.328125 34.859375 57.328125 23.390625 
Q 57.328125 12.15625 50.6875 5.359375 
Q 44.046875 -1.421875 33.015625 -1.421875 
Q 20.359375 -1.421875 13.671875 8.265625 
Q 6.984375 17.96875 6.984375 36.375 
Q 6.984375 53.65625 15.1875 63.9375 
Q 23.390625 74.21875 37.203125 74.21875 
Q 40.921875 74.21875 44.703125 73.484375 
Q 48.484375 72.75 52.59375 71.296875 
z
" id="DejaVuSans-36"/>
      </defs>
      <g transform="translate(484.138292 392.598437)scale(0.1 -0.1)">
       <use xlink:href="#DejaVuSans-36"/>
      </g>
     </g>
    </g>
    <g id="xtick_5">
     <g id="line2d_5">
      <g>
       <use style="stroke:#000000;stroke-width:0.8;" x="560.287425" xlink:href="#m248f2c7f25" y="378"/>
      </g>
     </g>
     <g id="text_5">
      <!-- 8 -->
      <defs>
       <path d="M 31.78125 34.625 
Q 24.75 34.625 20.71875 30.859375 
Q 16.703125 27.09375 16.703125 20.515625 
Q 16.703125 13.921875 20.71875 10.15625 
Q 24.75 6.390625 31.78125 6.390625 
Q 38.8125 6.390625 42.859375 10.171875 
Q 46.921875 13.96875 46.921875 20.515625 
Q 46.921875 27.09375 42.890625 30.859375 
Q 38.875 34.625 31.78125 34.625 
z
M 21.921875 38.8125 
Q 15.578125 40.375 12.03125 44.71875 
Q 8.5 49.078125 8.5 55.328125 
Q 8.5 64.0625 14.71875 69.140625 
Q 20.953125 74.21875 31.78125 74.21875 
Q 42.671875 74.21875 48.875 69.140625 
Q 55.078125 64.0625 55.078125 55.328125 
Q 55.078125 49.078125 51.53125 44.71875 
Q 48 40.375 41.703125 38.8125 
Q 48.828125 37.15625 52.796875 32.3125 
Q 56.78125 27.484375 56.78125 20.515625 
Q 56.78125 9.90625 50.3125 4.234375 
Q 43.84375 -1.421875 31.78125 -1.421875 
Q 19.734375 -1.421875 13.25 4.234375 
Q 6.78125 9.90625 6.78125 20.515625 
Q 6.78125 27.484375 10.78125 32.3125 
Q 14.796875 37.15625 21.921875 38.8125 
z
M 18.3125 54.390625 
Q 18.3125 48.734375 21.84375 45.5625 
Q 25.390625 42.390625 31.78125 42.390625 
Q 38.140625 42.390625 41.71875 45.5625 
Q 45.3125 48.734375 45.3125 54.390625 
Q 45.3125 60.0625 41.71875 63.234375 
Q 38.140625 66.40625 31.78125 66.40625 
Q 25.390625 66.40625 21.84375 63.234375 
Q 18.3125 60.0625 18.3125 54.390625 
z
" id="DejaVuSans-38"/>
      </defs>
      <g transform="translate(557.106175 392.598437)scale(0.1 -0.1)">
       <use xlink:href="#DejaVuSans-38"/>
      </g>
     </g>
    </g>
    <g id="xtick_6">
     <g id="line2d_6">
      <g>
       <use style="stroke:#000000;stroke-width:0.8;" x="633.255309" xlink:href="#m248f2c7f25" y="378"/>
      </g>
     </g>
     <g id="text_6">
      <!-- 10 -->
      <defs>
       <path d="M 12.40625 8.296875 
L 28.515625 8.296875 
L 28.515625 63.921875 
L 10.984375 60.40625 
L 10.984375 69.390625 
L 28.421875 72.90625 
L 38.28125 72.90625 
L 38.28125 8.296875 
L 54.390625 8.296875 
L 54.390625 0 
L 12.40625 0 
z
" id="DejaVuSans-31"/>
      </defs>
      <g transform="translate(626.892809 392.598437)scale(0.1 -0.1)">
       <use xlink:href="#DejaVuSans-31"/>
       <use x="63.623047" xlink:href="#DejaVuSans-30"/>
      </g>
     </g>
    </g>
    <g id="xtick_7">
     <g id="line2d_7">
      <g>
       <use style="stroke:#000000;stroke-width:0.8;" x="706.223193" xlink:href="#m248f2c7f25" y="378"/>
      </g>
     </g>
     <g id="text_7">
      <!-- 12 -->
      <g transform="translate(699.860693 392.598437)scale(0.1 -0.1)">
       <use xlink:href="#DejaVuSans-31"/>
       <use x="63.623047" xlink:href="#DejaVuSans-32"/>
      </g>
     </g>
    </g>
    <g id="xtick_8">
     <g id="line2d_8">
      <g>
       <use style="stroke:#000000;stroke-width:0.8;" x="779.191076" xlink:href="#m248f2c7f25" y="378"/>
      </g>
     </g>
     <g id="text_8">
      <!-- 14 -->
      <g transform="translate(772.828576 392.598437)scale(0.1 -0.1)">
       <use xlink:href="#DejaVuSans-31"/>
       <use x="63.623047" xlink:href="#DejaVuSans-34"/>
      </g>
     </g>
    </g>
    <g id="xtick_9">
     <g id="line2d_9">
      <g>
       <use style="stroke:#000000;stroke-width:0.8;" x="852.15896" xlink:href="#m248f2c7f25" y="378"/>
      </g>
     </g>
     <g id="text_9">
      <!-- 16 -->
      <g transform="translate(845.79646 392.598437)scale(0.1 -0.1)">
       <use xlink:href="#DejaVuSans-31"/>
       <use x="63.623047" xlink:href="#DejaVuSans-36"/>
      </g>
     </g>
    </g>
    <g id="text_10">
     <!-- Number of steps -->
     <defs>
      <path d="M 9.8125 72.90625 
L 23.09375 72.90625 
L 55.421875 11.921875 
L 55.421875 72.90625 
L 64.984375 72.90625 
L 64.984375 0 
L 51.703125 0 
L 19.390625 60.984375 
L 19.390625 0 
L 9.8125 0 
z
" id="DejaVuSans-4e"/>
      <path d="M 8.5 21.578125 
L 8.5 54.6875 
L 17.484375 54.6875 
L 17.484375 21.921875 
Q 17.484375 14.15625 20.5 10.265625 
Q 23.53125 6.390625 29.59375 6.390625 
Q 36.859375 6.390625 41.078125 11.03125 
Q 45.3125 15.671875 45.3125 23.6875 
L 45.3125 54.6875 
L 54.296875 54.6875 
L 54.296875 0 
L 45.3125 0 
L 45.3125 8.40625 
Q 42.046875 3.421875 37.71875 1 
Q 33.40625 -1.421875 27.6875 -1.421875 
Q 18.265625 -1.421875 13.375 4.4375 
Q 8.5 10.296875 8.5 21.578125 
z
M 31.109375 56 
z
" id="DejaVuSans-75"/>
      <path d="M 52 44.1875 
Q 55.375 50.25 60.0625 53.125 
Q 64.75 56 71.09375 56 
Q 79.640625 56 84.28125 50.015625 
Q 88.921875 44.046875 88.921875 33.015625 
L 88.921875 0 
L 79.890625 0 
L 79.890625 32.71875 
Q 79.890625 40.578125 77.09375 44.375 
Q 74.3125 48.1875 68.609375 48.1875 
Q 61.625 48.1875 57.5625 43.546875 
Q 53.515625 38.921875 53.515625 30.90625 
L 53.515625 0 
L 44.484375 0 
L 44.484375 32.71875 
Q 44.484375 40.625 41.703125 44.40625 
Q 38.921875 48.1875 33.109375 48.1875 
Q 26.21875 48.1875 22.15625 43.53125 
Q 18.109375 38.875 18.109375 30.90625 
L 18.109375 0 
L 9.078125 0 
L 9.078125 54.6875 
L 18.109375 54.6875 
L 18.109375 46.1875 
Q 21.1875 51.21875 25.484375 53.609375 
Q 29.78125 56 35.6875 56 
Q 41.65625 56 45.828125 52.96875 
Q 50 49.953125 52 44.1875 
z
" id="DejaVuSans-6d"/>
      <path d="M 48.6875 27.296875 
Q 48.6875 37.203125 44.609375 42.84375 
Q 40.53125 48.484375 33.40625 48.484375 
Q 26.265625 48.484375 22.1875 42.84375 
Q 18.109375 37.203125 18.109375 27.296875 
Q 18.109375 17.390625 22.1875 11.75 
Q 26.265625 6.109375 33.40625 6.109375 
Q 40.53125 6.109375 44.609375 11.75 
Q 48.6875 17.390625 48.6875 27.296875 
z
M 18.109375 46.390625 
Q 20.953125 51.265625 25.265625 53.625 
Q 29.59375 56 35.59375 56 
Q 45.5625 56 51.78125 48.09375 
Q 58.015625 40.1875 58.015625 27.296875 
Q 58.015625 14.40625 51.78125 6.484375 
Q 45.5625 -1.421875 35.59375 -1.421875 
Q 29.59375 -1.421875 25.265625 0.953125 
Q 20.953125 3.328125 18.109375 8.203125 
L 18.109375 0 
L 9.078125 0 
L 9.078125 75.984375 
L 18.109375 75.984375 
z
" id="DejaVuSans-62"/>
      <path d="M 56.203125 29.59375 
L 56.203125 25.203125 
L 14.890625 25.203125 
Q 15.484375 15.921875 20.484375 11.0625 
Q 25.484375 6.203125 34.421875 6.203125 
Q 39.59375 6.203125 44.453125 7.46875 
Q 49.3125 8.734375 54.109375 11.28125 
L 54.109375 2.78125 
Q 49.265625 0.734375 44.1875 -0.34375 
Q 39.109375 -1.421875 33.890625 -1.421875 
Q 20.796875 -1.421875 13.15625 6.1875 
Q 5.515625 13.8125 5.515625 26.8125 
Q 5.515625 40.234375 12.765625 48.109375 
Q 20.015625 56 32.328125 56 
Q 43.359375 56 49.78125 48.890625 
Q 56.203125 41.796875 56.203125 29.59375 
z
M 47.21875 32.234375 
Q 47.125 39.59375 43.09375 43.984375 
Q 39.0625 48.390625 32.421875 48.390625 
Q 24.90625 48.390625 20.390625 44.140625 
Q 15.875 39.890625 15.1875 32.171875 
z
" id="DejaVuSans-65"/>
      <path d="M 41.109375 46.296875 
Q 39.59375 47.171875 37.8125 47.578125 
Q 36.03125 48 33.890625 48 
Q 26.265625 48 22.1875 43.046875 
Q 18.109375 38.09375 18.109375 28.8125 
L 18.109375 0 
L 9.078125 0 
L 9.078125 54.6875 
L 18.109375 54.6875 
L 18.109375 46.1875 
Q 20.953125 51.171875 25.484375 53.578125 
Q 30.03125 56 36.53125 56 
Q 37.453125 56 38.578125 55.875 
Q 39.703125 55.765625 41.0625 55.515625 
z
" id="DejaVuSans-72"/>
      <path id="DejaVuSans-20"/>
      <path d="M 30.609375 48.390625 
Q 23.390625 48.390625 19.1875 42.75 
Q 14.984375 37.109375 14.984375 27.296875 
Q 14.984375 17.484375 19.15625 11.84375 
Q 23.34375 6.203125 30.609375 6.203125 
Q 37.796875 6.203125 41.984375 11.859375 
Q 46.1875 17.53125 46.1875 27.296875 
Q 46.1875 37.015625 41.984375 42.703125 
Q 37.796875 48.390625 30.609375 48.390625 
z
M 30.609375 56 
Q 42.328125 56 49.015625 48.375 
Q 55.71875 40.765625 55.71875 27.296875 
Q 55.71875 13.875 49.015625 6.21875 
Q 42.328125 -1.421875 30.609375 -1.421875 
Q 18.84375 -1.421875 12.171875 6.21875 
Q 5.515625 13.875 5.515625 27.296875 
Q 5.515625 40.765625 12.171875 48.375 
Q 18.84375 56 30.609375 56 
z
" id="DejaVuSans-6f"/>
      <path d="M 37.109375 75.984375 
L 37.109375 68.5 
L 28.515625 68.5 
Q 23.6875 68.5 21.796875 66.546875 
Q 19.921875 64.59375 19.921875 59.515625 
L 19.921875 54.6875 
L 34.71875 54.6875 
L 34.71875 47.703125 
L 19.921875 47.703125 
L 19.921875 0 
L 10.890625 0 
L 10.890625 47.703125 
L 2.296875 47.703125 
L 2.296875 54.6875 
L 10.890625 54.6875 
L 10.890625 58.5 
Q 10.890625 67.625 15.140625 71.796875 
Q 19.390625 75.984375 28.609375 75.984375 
z
" id="DejaVuSans-66"/>
      <path d="M 44.28125 53.078125 
L 44.28125 44.578125 
Q 40.484375 46.53125 36.375 47.5 
Q 32.28125 48.484375 27.875 48.484375 
Q 21.1875 48.484375 17.84375 46.4375 
Q 14.5 44.390625 14.5 40.28125 
Q 14.5 37.15625 16.890625 35.375 
Q 19.28125 33.59375 26.515625 31.984375 
L 29.59375 31.296875 
Q 39.15625 29.25 43.1875 25.515625 
Q 47.21875 21.78125 47.21875 15.09375 
Q 47.21875 7.46875 41.1875 3.015625 
Q 35.15625 -1.421875 24.609375 -1.421875 
Q 20.21875 -1.421875 15.453125 -0.5625 
Q 10.6875 0.296875 5.421875 2 
L 5.421875 11.28125 
Q 10.40625 8.6875 15.234375 7.390625 
Q 20.0625 6.109375 24.8125 6.109375 
Q 31.15625 6.109375 34.5625 8.28125 
Q 37.984375 10.453125 37.984375 14.40625 
Q 37.984375 18.0625 35.515625 20.015625 
Q 33.0625 21.96875 24.703125 23.78125 
L 21.578125 24.515625 
Q 13.234375 26.265625 9.515625 29.90625 
Q 5.8125 33.546875 5.8125 39.890625 
Q 5.8125 47.609375 11.28125 51.796875 
Q 16.75 56 26.8125 56 
Q 31.78125 56 36.171875 55.265625 
Q 40.578125 54.546875 44.28125 53.078125 
z
" id="DejaVuSans-73"/>
      <path d="M 18.3125 70.21875 
L 18.3125 54.6875 
L 36.8125 54.6875 
L 36.8125 47.703125 
L 18.3125 47.703125 
L 18.3125 18.015625 
Q 18.3125 11.328125 20.140625 9.421875 
Q 21.96875 7.515625 27.59375 7.515625 
L 36.8125 7.515625 
L 36.8125 0 
L 27.59375 0 
Q 17.1875 0 13.234375 3.875 
Q 9.28125 7.765625 9.28125 18.015625 
L 9.28125 47.703125 
L 2.6875 47.703125 
L 2.6875 54.6875 
L 9.28125 54.6875 
L 9.28125 70.21875 
z
" id="DejaVuSans-74"/>
      <path d="M 18.109375 8.203125 
L 18.109375 -20.796875 
L 9.078125 -20.796875 
L 9.078125 54.6875 
L 18.109375 54.6875 
L 18.109375 46.390625 
Q 20.953125 51.265625 25.265625 53.625 
Q 29.59375 56 35.59375 56 
Q 45.5625 56 51.78125 48.09375 
Q 58.015625 40.1875 58.015625 27.296875 
Q 58.015625 14.40625 51.78125 6.484375 
Q 45.5625 -1.421875 35.59375 -1.421875 
Q 29.59375 -1.421875 25.265625 0.953125 
Q 20.953125 3.328125 18.109375 8.203125 
z
M 48.6875 27.296875 
Q 48.6875 37.203125 44.609375 42.84375 
Q 40.53125 48.484375 33.40625 48.484375 
Q 26.265625 48.484375 22.1875 42.84375 
Q 18.109375 37.203125 18.109375 27.296875 
Q 18.109375 17.390625 22.1875 11.75 
Q 26.265625 6.109375 33.40625 6.109375 
Q 40.53125 6.109375 44.609375 11.75 
Q 48.6875 17.390625 48.6875 27.296875 
z
" id="DejaVuSans-70"/>
     </defs>
     <g transform="translate(479.789595 410.075781)scale(0.15 -0.15)">
      <use xlink:href="#DejaVuSans-4e"/>
      <use x="74.804688" xlink:href="#DejaVuSans-75"/>
      <use x="138.183594" xlink:href="#DejaVuSans-6d"/>
      <use x="235.595703" xlink:href="#DejaVuSans-62"/>
      <use x="299.072266" xlink:href="#DejaVuSans-65"/>
      <use x="360.595703" xlink:href="#DejaVuSans-72"/>
      <use x="401.708984" xlink:href="#DejaVuSans-20"/>
      <use x="433.496094" xlink:href="#DejaVuSans-6f"/>
      <use x="494.677734" xlink:href="#DejaVuSans-66"/>
      <use x="529.882812" xlink:href="#DejaVuSans-20"/>
      <use x="561.669922" xlink:href="#DejaVuSans-73"/>
      <use x="613.769531" xlink:href="#DejaVuSans-74"/>
      <use x="652.978516" xlink:href="#DejaVuSans-65"/>
      <use x="714.501953" xlink:href="#DejaVuSans-70"/>
      <use x="777.978516" xlink:href="#DejaVuSans-73"/>
     </g>
    </g>
   </g>
   <g id="matplotlib.axis_2">
    <g id="ytick_1">
     <g id="line2d_10">
      <defs>
       <path d="M 0 0 
L -3.5 0 
" id="m80eb3076ce" style="stroke:#000000;stroke-width:0.8;"/>
      </defs>
      <g>
       <use style="stroke:#000000;stroke-width:0.8;" x="225" xlink:href="#m80eb3076ce" y="378"/>
      </g>
     </g>
     <g id="text_11">
      <!-- 0.0 -->
      <defs>
       <path d="M 10.6875 12.40625 
L 21 12.40625 
L 21 0 
L 10.6875 0 
z
" id="DejaVuSans-2e"/>
      </defs>
      <g transform="translate(202.096875 381.799219)scale(0.1 -0.1)">
       <use xlink:href="#DejaVuSans-30"/>
       <use x="63.623047" xlink:href="#DejaVuSans-2e"/>
       <use x="95.410156" xlink:href="#DejaVuSans-30"/>
      </g>
     </g>
    </g>
    <g id="ytick_2">
     <g id="line2d_11">
      <g>
       <use style="stroke:#000000;stroke-width:0.8;" x="225" xlink:href="#m80eb3076ce" y="315.874286"/>
      </g>
     </g>
     <g id="text_12">
      <!-- 0.2 -->
      <g transform="translate(202.096875 319.673504)scale(0.1 -0.1)">
       <use xlink:href="#DejaVuSans-30"/>
       <use x="63.623047" xlink:href="#DejaVuSans-2e"/>
       <use x="95.410156" xlink:href="#DejaVuSans-32"/>
      </g>
     </g>
    </g>
    <g id="ytick_3">
     <g id="line2d_12">
      <g>
       <use style="stroke:#000000;stroke-width:0.8;" x="225" xlink:href="#m80eb3076ce" y="253.748571"/>
      </g>
     </g>
     <g id="text_13">
      <!-- 0.4 -->
      <g transform="translate(202.096875 257.54779)scale(0.1 -0.1)">
       <use xlink:href="#DejaVuSans-30"/>
       <use x="63.623047" xlink:href="#DejaVuSans-2e"/>
       <use x="95.410156" xlink:href="#DejaVuSans-34"/>
      </g>
     </g>
    </g>
    <g id="ytick_4">
     <g id="line2d_13">
      <g>
       <use style="stroke:#000000;stroke-width:0.8;" x="225" xlink:href="#m80eb3076ce" y="191.622857"/>
      </g>
     </g>
     <g id="text_14">
      <!-- 0.6 -->
      <g transform="translate(202.096875 195.422076)scale(0.1 -0.1)">
       <use xlink:href="#DejaVuSans-30"/>
       <use x="63.623047" xlink:href="#DejaVuSans-2e"/>
       <use x="95.410156" xlink:href="#DejaVuSans-36"/>
      </g>
     </g>
    </g>
    <g id="ytick_5">
     <g id="line2d_14">
      <g>
       <use style="stroke:#000000;stroke-width:0.8;" x="225" xlink:href="#m80eb3076ce" y="129.497143"/>
      </g>
     </g>
     <g id="text_15">
      <!-- 0.8 -->
      <g transform="translate(202.096875 133.296362)scale(0.1 -0.1)">
       <use xlink:href="#DejaVuSans-30"/>
       <use x="63.623047" xlink:href="#DejaVuSans-2e"/>
       <use x="95.410156" xlink:href="#DejaVuSans-38"/>
      </g>
     </g>
    </g>
    <g id="ytick_6">
     <g id="line2d_15">
      <g>
       <use style="stroke:#000000;stroke-width:0.8;" x="225" xlink:href="#m80eb3076ce" y="67.371429"/>
      </g>
     </g>
     <g id="text_16">
      <!-- 1.0 -->
      <g transform="translate(202.096875 71.170647)scale(0.1 -0.1)">
       <use xlink:href="#DejaVuSans-31"/>
       <use x="63.623047" xlink:href="#DejaVuSans-2e"/>
       <use x="95.410156" xlink:href="#DejaVuSans-30"/>
      </g>
     </g>
    </g>
    <g id="text_17">
     <!-- Cumulative Proba. -->
     <defs>
      <path d="M 64.40625 67.28125 
L 64.40625 56.890625 
Q 59.421875 61.53125 53.78125 63.8125 
Q 48.140625 66.109375 41.796875 66.109375 
Q 29.296875 66.109375 22.65625 58.46875 
Q 16.015625 50.828125 16.015625 36.375 
Q 16.015625 21.96875 22.65625 14.328125 
Q 29.296875 6.6875 41.796875 6.6875 
Q 48.140625 6.6875 53.78125 8.984375 
Q 59.421875 11.28125 64.40625 15.921875 
L 64.40625 5.609375 
Q 59.234375 2.09375 53.4375 0.328125 
Q 47.65625 -1.421875 41.21875 -1.421875 
Q 24.65625 -1.421875 15.125 8.703125 
Q 5.609375 18.84375 5.609375 36.375 
Q 5.609375 53.953125 15.125 64.078125 
Q 24.65625 74.21875 41.21875 74.21875 
Q 47.75 74.21875 53.53125 72.484375 
Q 59.328125 70.75 64.40625 67.28125 
z
" id="DejaVuSans-43"/>
      <path d="M 9.421875 75.984375 
L 18.40625 75.984375 
L 18.40625 0 
L 9.421875 0 
z
" id="DejaVuSans-6c"/>
      <path d="M 34.28125 27.484375 
Q 23.390625 27.484375 19.1875 25 
Q 14.984375 22.515625 14.984375 16.5 
Q 14.984375 11.71875 18.140625 8.90625 
Q 21.296875 6.109375 26.703125 6.109375 
Q 34.1875 6.109375 38.703125 11.40625 
Q 43.21875 16.703125 43.21875 25.484375 
L 43.21875 27.484375 
z
M 52.203125 31.203125 
L 52.203125 0 
L 43.21875 0 
L 43.21875 8.296875 
Q 40.140625 3.328125 35.546875 0.953125 
Q 30.953125 -1.421875 24.3125 -1.421875 
Q 15.921875 -1.421875 10.953125 3.296875 
Q 6 8.015625 6 15.921875 
Q 6 25.140625 12.171875 29.828125 
Q 18.359375 34.515625 30.609375 34.515625 
L 43.21875 34.515625 
L 43.21875 35.40625 
Q 43.21875 41.609375 39.140625 45 
Q 35.0625 48.390625 27.6875 48.390625 
Q 23 48.390625 18.546875 47.265625 
Q 14.109375 46.140625 10.015625 43.890625 
L 10.015625 52.203125 
Q 14.9375 54.109375 19.578125 55.046875 
Q 24.21875 56 28.609375 56 
Q 40.484375 56 46.34375 49.84375 
Q 52.203125 43.703125 52.203125 31.203125 
z
" id="DejaVuSans-61"/>
      <path d="M 9.421875 54.6875 
L 18.40625 54.6875 
L 18.40625 0 
L 9.421875 0 
z
M 9.421875 75.984375 
L 18.40625 75.984375 
L 18.40625 64.59375 
L 9.421875 64.59375 
z
" id="DejaVuSans-69"/>
      <path d="M 2.984375 54.6875 
L 12.5 54.6875 
L 29.59375 8.796875 
L 46.6875 54.6875 
L 56.203125 54.6875 
L 35.6875 0 
L 23.484375 0 
z
" id="DejaVuSans-76"/>
      <path d="M 19.671875 64.796875 
L 19.671875 37.40625 
L 32.078125 37.40625 
Q 38.96875 37.40625 42.71875 40.96875 
Q 46.484375 44.53125 46.484375 51.125 
Q 46.484375 57.671875 42.71875 61.234375 
Q 38.96875 64.796875 32.078125 64.796875 
z
M 9.8125 72.90625 
L 32.078125 72.90625 
Q 44.34375 72.90625 50.609375 67.359375 
Q 56.890625 61.8125 56.890625 51.125 
Q 56.890625 40.328125 50.609375 34.8125 
Q 44.34375 29.296875 32.078125 29.296875 
L 19.671875 29.296875 
L 19.671875 0 
L 9.8125 0 
z
" id="DejaVuSans-50"/>
     </defs>
     <g transform="translate(194.977344 284.041875)rotate(-90)scale(0.15 -0.15)">
      <use xlink:href="#DejaVuSans-43"/>
      <use x="69.824219" xlink:href="#DejaVuSans-75"/>
      <use x="133.203125" xlink:href="#DejaVuSans-6d"/>
      <use x="230.615234" xlink:href="#DejaVuSans-75"/>
      <use x="293.994141" xlink:href="#DejaVuSans-6c"/>
      <use x="321.777344" xlink:href="#DejaVuSans-61"/>
      <use x="383.056641" xlink:href="#DejaVuSans-74"/>
      <use x="422.265625" xlink:href="#DejaVuSans-69"/>
      <use x="450.048828" xlink:href="#DejaVuSans-76"/>
      <use x="509.228516" xlink:href="#DejaVuSans-65"/>
      <use x="570.751953" xlink:href="#DejaVuSans-20"/>
      <use x="602.539062" xlink:href="#DejaVuSans-50"/>
      <use x="662.826172" xlink:href="#DejaVuSans-72"/>
      <use x="703.908203" xlink:href="#DejaVuSans-6f"/>
      <use x="765.089844" xlink:href="#DejaVuSans-62"/>
      <use x="828.566406" xlink:href="#DejaVuSans-61"/>
      <use x="889.845703" xlink:href="#DejaVuSans-2e"/>
     </g>
    </g>
   </g>
   <g id="patch_35">
    <path d="M 225 378 
L 225 51.84 
" style="fill:none;stroke:#000000;stroke-linecap:square;stroke-linejoin:miter;stroke-width:0.8;"/>
   </g>
   <g id="patch_36">
    <path d="M 859.090909 378 
L 859.090909 51.84 
" style="fill:none;stroke:#000000;stroke-linecap:square;stroke-linejoin:miter;stroke-width:0.8;"/>
   </g>
   <g id="patch_37">
    <path d="M 225 378 
L 859.090909 378 
" style="fill:none;stroke:#000000;stroke-linecap:square;stroke-linejoin:miter;stroke-width:0.8;"/>
   </g>
   <g id="patch_38">
    <path d="M 225 51.84 
L 859.090909 51.84 
" style="fill:none;stroke:#000000;stroke-linecap:square;stroke-linejoin:miter;stroke-width:0.8;"/>
   </g>
   <g id="text_18">
    <!-- Comparison Between Exp. Distrib. and Th. Real Source Distrib. -->
    <defs>
     <path d="M 54.890625 33.015625 
L 54.890625 0 
L 45.90625 0 
L 45.90625 32.71875 
Q 45.90625 40.484375 42.875 44.328125 
Q 39.84375 48.1875 33.796875 48.1875 
Q 26.515625 48.1875 22.3125 43.546875 
Q 18.109375 38.921875 18.109375 30.90625 
L 18.109375 0 
L 9.078125 0 
L 9.078125 54.6875 
L 18.109375 54.6875 
L 18.109375 46.1875 
Q 21.34375 51.125 25.703125 53.5625 
Q 30.078125 56 35.796875 56 
Q 45.21875 56 50.046875 50.171875 
Q 54.890625 44.34375 54.890625 33.015625 
z
" id="DejaVuSans-6e"/>
     <path d="M 19.671875 34.8125 
L 19.671875 8.109375 
L 35.5 8.109375 
Q 43.453125 8.109375 47.28125 11.40625 
Q 51.125 14.703125 51.125 21.484375 
Q 51.125 28.328125 47.28125 31.5625 
Q 43.453125 34.8125 35.5 34.8125 
z
M 19.671875 64.796875 
L 19.671875 42.828125 
L 34.28125 42.828125 
Q 41.5 42.828125 45.03125 45.53125 
Q 48.578125 48.25 48.578125 53.8125 
Q 48.578125 59.328125 45.03125 62.0625 
Q 41.5 64.796875 34.28125 64.796875 
z
M 9.8125 72.90625 
L 35.015625 72.90625 
Q 46.296875 72.90625 52.390625 68.21875 
Q 58.5 63.53125 58.5 54.890625 
Q 58.5 48.1875 55.375 44.234375 
Q 52.25 40.28125 46.1875 39.3125 
Q 53.46875 37.75 57.5 32.78125 
Q 61.53125 27.828125 61.53125 20.40625 
Q 61.53125 10.640625 54.890625 5.3125 
Q 48.25 0 35.984375 0 
L 9.8125 0 
z
" id="DejaVuSans-42"/>
     <path d="M 4.203125 54.6875 
L 13.1875 54.6875 
L 24.421875 12.015625 
L 35.59375 54.6875 
L 46.1875 54.6875 
L 57.421875 12.015625 
L 68.609375 54.6875 
L 77.59375 54.6875 
L 63.28125 0 
L 52.6875 0 
L 40.921875 44.828125 
L 29.109375 0 
L 18.5 0 
z
" id="DejaVuSans-77"/>
     <path d="M 9.8125 72.90625 
L 55.90625 72.90625 
L 55.90625 64.59375 
L 19.671875 64.59375 
L 19.671875 43.015625 
L 54.390625 43.015625 
L 54.390625 34.71875 
L 19.671875 34.71875 
L 19.671875 8.296875 
L 56.78125 8.296875 
L 56.78125 0 
L 9.8125 0 
z
" id="DejaVuSans-45"/>
     <path d="M 54.890625 54.6875 
L 35.109375 28.078125 
L 55.90625 0 
L 45.3125 0 
L 29.390625 21.484375 
L 13.484375 0 
L 2.875 0 
L 24.125 28.609375 
L 4.6875 54.6875 
L 15.28125 54.6875 
L 29.78125 35.203125 
L 44.28125 54.6875 
z
" id="DejaVuSans-78"/>
     <path d="M 19.671875 64.796875 
L 19.671875 8.109375 
L 31.59375 8.109375 
Q 46.6875 8.109375 53.6875 14.9375 
Q 60.6875 21.78125 60.6875 36.53125 
Q 60.6875 51.171875 53.6875 57.984375 
Q 46.6875 64.796875 31.59375 64.796875 
z
M 9.8125 72.90625 
L 30.078125 72.90625 
Q 51.265625 72.90625 61.171875 64.09375 
Q 71.09375 55.28125 71.09375 36.53125 
Q 71.09375 17.671875 61.125 8.828125 
Q 51.171875 0 30.078125 0 
L 9.8125 0 
z
" id="DejaVuSans-44"/>
     <path d="M 45.40625 46.390625 
L 45.40625 75.984375 
L 54.390625 75.984375 
L 54.390625 0 
L 45.40625 0 
L 45.40625 8.203125 
Q 42.578125 3.328125 38.25 0.953125 
Q 33.9375 -1.421875 27.875 -1.421875 
Q 17.96875 -1.421875 11.734375 6.484375 
Q 5.515625 14.40625 5.515625 27.296875 
Q 5.515625 40.1875 11.734375 48.09375 
Q 17.96875 56 27.875 56 
Q 33.9375 56 38.25 53.625 
Q 42.578125 51.265625 45.40625 46.390625 
z
M 14.796875 27.296875 
Q 14.796875 17.390625 18.875 11.75 
Q 22.953125 6.109375 30.078125 6.109375 
Q 37.203125 6.109375 41.296875 11.75 
Q 45.40625 17.390625 45.40625 27.296875 
Q 45.40625 37.203125 41.296875 42.84375 
Q 37.203125 48.484375 30.078125 48.484375 
Q 22.953125 48.484375 18.875 42.84375 
Q 14.796875 37.203125 14.796875 27.296875 
z
" id="DejaVuSans-64"/>
     <path d="M -0.296875 72.90625 
L 61.375 72.90625 
L 61.375 64.59375 
L 35.5 64.59375 
L 35.5 0 
L 25.59375 0 
L 25.59375 64.59375 
L -0.296875 64.59375 
z
" id="DejaVuSans-54"/>
     <path d="M 54.890625 33.015625 
L 54.890625 0 
L 45.90625 0 
L 45.90625 32.71875 
Q 45.90625 40.484375 42.875 44.328125 
Q 39.84375 48.1875 33.796875 48.1875 
Q 26.515625 48.1875 22.3125 43.546875 
Q 18.109375 38.921875 18.109375 30.90625 
L 18.109375 0 
L 9.078125 0 
L 9.078125 75.984375 
L 18.109375 75.984375 
L 18.109375 46.1875 
Q 21.34375 51.125 25.703125 53.5625 
Q 30.078125 56 35.796875 56 
Q 45.21875 56 50.046875 50.171875 
Q 54.890625 44.34375 54.890625 33.015625 
z
" id="DejaVuSans-68"/>
     <path d="M 44.390625 34.1875 
Q 47.5625 33.109375 50.5625 29.59375 
Q 53.5625 26.078125 56.59375 19.921875 
L 66.609375 0 
L 56 0 
L 46.6875 18.703125 
Q 43.0625 26.03125 39.671875 28.421875 
Q 36.28125 30.8125 30.421875 30.8125 
L 19.671875 30.8125 
L 19.671875 0 
L 9.8125 0 
L 9.8125 72.90625 
L 32.078125 72.90625 
Q 44.578125 72.90625 50.734375 67.671875 
Q 56.890625 62.453125 56.890625 51.90625 
Q 56.890625 45.015625 53.6875 40.46875 
Q 50.484375 35.9375 44.390625 34.1875 
z
M 19.671875 64.796875 
L 19.671875 38.921875 
L 32.078125 38.921875 
Q 39.203125 38.921875 42.84375 42.21875 
Q 46.484375 45.515625 46.484375 51.90625 
Q 46.484375 58.296875 42.84375 61.546875 
Q 39.203125 64.796875 32.078125 64.796875 
z
" id="DejaVuSans-52"/>
     <path d="M 53.515625 70.515625 
L 53.515625 60.890625 
Q 47.90625 63.578125 42.921875 64.890625 
Q 37.9375 66.21875 33.296875 66.21875 
Q 25.25 66.21875 20.875 63.09375 
Q 16.5 59.96875 16.5 54.203125 
Q 16.5 49.359375 19.40625 46.890625 
Q 22.3125 44.4375 30.421875 42.921875 
L 36.375 41.703125 
Q 47.40625 39.59375 52.65625 34.296875 
Q 57.90625 29 57.90625 20.125 
Q 57.90625 9.515625 50.796875 4.046875 
Q 43.703125 -1.421875 29.984375 -1.421875 
Q 24.8125 -1.421875 18.96875 -0.25 
Q 13.140625 0.921875 6.890625 3.21875 
L 6.890625 13.375 
Q 12.890625 10.015625 18.65625 8.296875 
Q 24.421875 6.59375 29.984375 6.59375 
Q 38.421875 6.59375 43.015625 9.90625 
Q 47.609375 13.234375 47.609375 19.390625 
Q 47.609375 24.75 44.3125 27.78125 
Q 41.015625 30.8125 33.5 32.328125 
L 27.484375 33.5 
Q 16.453125 35.6875 11.515625 40.375 
Q 6.59375 45.0625 6.59375 53.421875 
Q 6.59375 63.09375 13.40625 68.65625 
Q 20.21875 74.21875 32.171875 74.21875 
Q 37.3125 74.21875 42.625 73.28125 
Q 47.953125 72.359375 53.515625 70.515625 
z
" id="DejaVuSans-53"/>
     <path d="M 48.78125 52.59375 
L 48.78125 44.1875 
Q 44.96875 46.296875 41.140625 47.34375 
Q 37.3125 48.390625 33.40625 48.390625 
Q 24.65625 48.390625 19.8125 42.84375 
Q 14.984375 37.3125 14.984375 27.296875 
Q 14.984375 17.28125 19.8125 11.734375 
Q 24.65625 6.203125 33.40625 6.203125 
Q 37.3125 6.203125 41.140625 7.25 
Q 44.96875 8.296875 48.78125 10.40625 
L 48.78125 2.09375 
Q 45.015625 0.34375 40.984375 -0.53125 
Q 36.96875 -1.421875 32.421875 -1.421875 
Q 20.0625 -1.421875 12.78125 6.34375 
Q 5.515625 14.109375 5.515625 27.296875 
Q 5.515625 40.671875 12.859375 48.328125 
Q 20.21875 56 33.015625 56 
Q 37.15625 56 41.109375 55.140625 
Q 45.0625 54.296875 48.78125 52.59375 
z
" id="DejaVuSans-63"/>
    </defs>
    <g transform="translate(228.176705 45.84)scale(0.2 -0.2)">
     <use xlink:href="#DejaVuSans-43"/>
     <use x="69.824219" xlink:href="#DejaVuSans-6f"/>
     <use x="131.005859" xlink:href="#DejaVuSans-6d"/>
     <use x="228.417969" xlink:href="#DejaVuSans-70"/>
     <use x="291.894531" xlink:href="#DejaVuSans-61"/>
     <use x="353.173828" xlink:href="#DejaVuSans-72"/>
     <use x="394.287109" xlink:href="#DejaVuSans-69"/>
     <use x="422.070312" xlink:href="#DejaVuSans-73"/>
     <use x="474.169922" xlink:href="#DejaVuSans-6f"/>
     <use x="535.351562" xlink:href="#DejaVuSans-6e"/>
     <use x="598.730469" xlink:href="#DejaVuSans-20"/>
     <use x="630.517578" xlink:href="#DejaVuSans-42"/>
     <use x="699.121094" xlink:href="#DejaVuSans-65"/>
     <use x="760.644531" xlink:href="#DejaVuSans-74"/>
     <use x="799.853516" xlink:href="#DejaVuSans-77"/>
     <use x="881.640625" xlink:href="#DejaVuSans-65"/>
     <use x="943.164062" xlink:href="#DejaVuSans-65"/>
     <use x="1004.6875" xlink:href="#DejaVuSans-6e"/>
     <use x="1068.066406" xlink:href="#DejaVuSans-20"/>
     <use x="1099.853516" xlink:href="#DejaVuSans-45"/>
     <use x="1163.037109" xlink:href="#DejaVuSans-78"/>
     <use x="1222.216797" xlink:href="#DejaVuSans-70"/>
     <use x="1285.693359" xlink:href="#DejaVuSans-2e"/>
     <use x="1317.480469" xlink:href="#DejaVuSans-20"/>
     <use x="1349.267578" xlink:href="#DejaVuSans-44"/>
     <use x="1426.269531" xlink:href="#DejaVuSans-69"/>
     <use x="1454.052734" xlink:href="#DejaVuSans-73"/>
     <use x="1506.152344" xlink:href="#DejaVuSans-74"/>
     <use x="1545.361328" xlink:href="#DejaVuSans-72"/>
     <use x="1586.474609" xlink:href="#DejaVuSans-69"/>
     <use x="1614.257812" xlink:href="#DejaVuSans-62"/>
     <use x="1677.734375" xlink:href="#DejaVuSans-2e"/>
     <use x="1709.521484" xlink:href="#DejaVuSans-20"/>
     <use x="1741.308594" xlink:href="#DejaVuSans-61"/>
     <use x="1802.587891" xlink:href="#DejaVuSans-6e"/>
     <use x="1865.966797" xlink:href="#DejaVuSans-64"/>
     <use x="1929.443359" xlink:href="#DejaVuSans-20"/>
     <use x="1961.230469" xlink:href="#DejaVuSans-54"/>
     <use x="2022.314453" xlink:href="#DejaVuSans-68"/>
     <use x="2085.693359" xlink:href="#DejaVuSans-2e"/>
     <use x="2117.480469" xlink:href="#DejaVuSans-20"/>
     <use x="2149.267578" xlink:href="#DejaVuSans-52"/>
     <use x="2218.6875" xlink:href="#DejaVuSans-65"/>
     <use x="2280.210938" xlink:href="#DejaVuSans-61"/>
     <use x="2341.490234" xlink:href="#DejaVuSans-6c"/>
     <use x="2369.273438" xlink:href="#DejaVuSans-20"/>
     <use x="2401.060547" xlink:href="#DejaVuSans-53"/>
     <use x="2464.537109" xlink:href="#DejaVuSans-6f"/>
     <use x="2525.71875" xlink:href="#DejaVuSans-75"/>
     <use x="2589.097656" xlink:href="#DejaVuSans-72"/>
     <use x="2630.179688" xlink:href="#DejaVuSans-63"/>
     <use x="2685.160156" xlink:href="#DejaVuSans-65"/>
     <use x="2746.683594" xlink:href="#DejaVuSans-20"/>
     <use x="2778.470703" xlink:href="#DejaVuSans-44"/>
     <use x="2855.472656" xlink:href="#DejaVuSans-69"/>
     <use x="2883.255859" xlink:href="#DejaVuSans-73"/>
     <use x="2935.355469" xlink:href="#DejaVuSans-74"/>
     <use x="2974.564453" xlink:href="#DejaVuSans-72"/>
     <use x="3015.677734" xlink:href="#DejaVuSans-69"/>
     <use x="3043.460938" xlink:href="#DejaVuSans-62"/>
     <use x="3106.9375" xlink:href="#DejaVuSans-2e"/>
    </g>
   </g>
   <g id="legend_1">
    <g id="patch_39">
     <path d="M 235.5 107.874375 
L 469.251562 107.874375 
Q 472.251562 107.874375 472.251562 104.874375 
L 472.251562 62.34 
Q 472.251562 59.34 469.251562 59.34 
L 235.5 59.34 
Q 232.5 59.34 232.5 62.34 
L 232.5 104.874375 
Q 232.5 107.874375 235.5 107.874375 
z
" style="fill:#ffffff;opacity:0.8;stroke:#cccccc;stroke-linejoin:miter;"/>
    </g>
    <g id="patch_40">
     <path d="M 238.5 76.737656 
L 268.5 76.737656 
L 268.5 66.237656 
L 238.5 66.237656 
z
" style="fill:#1f77b4;"/>
    </g>
    <g id="text_19">
     <!-- Exp. Distrib -->
     <g transform="translate(280.5 76.737656)scale(0.15 -0.15)">
      <use xlink:href="#DejaVuSans-45"/>
      <use x="63.183594" xlink:href="#DejaVuSans-78"/>
      <use x="122.363281" xlink:href="#DejaVuSans-70"/>
      <use x="185.839844" xlink:href="#DejaVuSans-2e"/>
      <use x="217.626953" xlink:href="#DejaVuSans-20"/>
      <use x="249.414062" xlink:href="#DejaVuSans-44"/>
      <use x="326.416016" xlink:href="#DejaVuSans-69"/>
      <use x="354.199219" xlink:href="#DejaVuSans-73"/>
      <use x="406.298828" xlink:href="#DejaVuSans-74"/>
      <use x="445.507812" xlink:href="#DejaVuSans-72"/>
      <use x="486.621094" xlink:href="#DejaVuSans-69"/>
      <use x="514.404297" xlink:href="#DejaVuSans-62"/>
     </g>
    </g>
    <g id="patch_41">
     <path d="M 238.5 98.754844 
L 268.5 98.754844 
L 268.5 88.254844 
L 238.5 88.254844 
z
" style="fill:#ff7f0e;"/>
    </g>
    <g id="text_20">
     <!-- Th. Distrib. of the source -->
     <g transform="translate(280.5 98.754844)scale(0.15 -0.15)">
      <use xlink:href="#DejaVuSans-54"/>
      <use x="61.083984" xlink:href="#DejaVuSans-68"/>
      <use x="124.462891" xlink:href="#DejaVuSans-2e"/>
      <use x="156.25" xlink:href="#DejaVuSans-20"/>
      <use x="188.037109" xlink:href="#DejaVuSans-44"/>
      <use x="265.039062" xlink:href="#DejaVuSans-69"/>
      <use x="292.822266" xlink:href="#DejaVuSans-73"/>
      <use x="344.921875" xlink:href="#DejaVuSans-74"/>
      <use x="384.130859" xlink:href="#DejaVuSans-72"/>
      <use x="425.244141" xlink:href="#DejaVuSans-69"/>
      <use x="453.027344" xlink:href="#DejaVuSans-62"/>
      <use x="516.503906" xlink:href="#DejaVuSans-2e"/>
      <use x="548.291016" xlink:href="#DejaVuSans-20"/>
      <use x="580.078125" xlink:href="#DejaVuSans-6f"/>
      <use x="641.259766" xlink:href="#DejaVuSans-66"/>
      <use x="676.464844" xlink:href="#DejaVuSans-20"/>
      <use x="708.251953" xlink:href="#DejaVuSans-74"/>
      <use x="747.460938" xlink:href="#DejaVuSans-68"/>
      <use x="810.839844" xlink:href="#DejaVuSans-65"/>
      <use x="872.363281" xlink:href="#DejaVuSans-20"/>
      <use x="904.150391" xlink:href="#DejaVuSans-73"/>
      <use x="956.25" xlink:href="#DejaVuSans-6f"/>
      <use x="1017.431641" xlink:href="#DejaVuSans-75"/>
      <use x="1080.810547" xlink:href="#DejaVuSans-72"/>
      <use x="1121.892578" xlink:href="#DejaVuSans-63"/>
      <use x="1176.873047" xlink:href="#DejaVuSans-65"/>
     </g>
    </g>
   </g>
  </g>
  <g id="axes_2">
   <g id="patch_42">
    <path d="M 985.909091 378 
L 1620 378 
L 1620 51.84 
L 985.909091 51.84 
z
" style="fill:#ffffff;"/>
   </g>
   <g id="patch_43">
    <path clip-path="url(#pd022d2b28d)" d="M 1014.731405 378 
L 1043.918558 378 
L 1043.918558 378 
L 1014.731405 378 
z
" style="fill:#1f77b4;"/>
   </g>
   <g id="patch_44">
    <path clip-path="url(#pd022d2b28d)" d="M 1051.215347 378 
L 1080.4025 378 
L 1080.4025 378 
L 1051.215347 378 
z
" style="fill:#1f77b4;"/>
   </g>
   <g id="patch_45">
    <path clip-path="url(#pd022d2b28d)" d="M 1087.699289 378 
L 1116.886442 378 
L 1116.886442 378 
L 1087.699289 378 
z
" style="fill:#1f77b4;"/>
   </g>
   <g id="patch_46">
    <path clip-path="url(#pd022d2b28d)" d="M 1124.18323 378 
L 1153.370384 378 
L 1153.370384 378 
L 1124.18323 378 
z
" style="fill:#1f77b4;"/>
   </g>
   <g id="patch_47">
    <path clip-path="url(#pd022d2b28d)" d="M 1160.667172 378 
L 1189.854326 378 
L 1189.854326 378 
L 1160.667172 378 
z
" style="fill:#1f77b4;"/>
   </g>
   <g id="patch_48">
    <path clip-path="url(#pd022d2b28d)" d="M 1197.151114 378 
L 1226.338268 378 
L 1226.338268 378 
L 1197.151114 378 
z
" style="fill:#1f77b4;"/>
   </g>
   <g id="patch_49">
    <path clip-path="url(#pd022d2b28d)" d="M 1233.635056 378 
L 1262.822209 378 
L 1262.822209 356.256 
L 1233.635056 356.256 
z
" style="fill:#1f77b4;"/>
   </g>
   <g id="patch_50">
    <path clip-path="url(#pd022d2b28d)" d="M 1270.118998 378 
L 1299.306151 378 
L 1299.306151 263.067429 
L 1270.118998 263.067429 
z
" style="fill:#1f77b4;"/>
   </g>
   <g id="patch_51">
    <path clip-path="url(#pd022d2b28d)" d="M 1306.60294 378 
L 1335.790093 378 
L 1335.790093 163.666286 
L 1306.60294 163.666286 
z
" style="fill:#1f77b4;"/>
   </g>
   <g id="patch_52">
    <path clip-path="url(#pd022d2b28d)" d="M 1343.086881 378 
L 1372.274035 378 
L 1372.274035 98.434286 
L 1343.086881 98.434286 
z
" style="fill:#1f77b4;"/>
   </g>
   <g id="patch_53">
    <path clip-path="url(#pd022d2b28d)" d="M 1379.570823 378 
L 1408.757977 378 
L 1408.757977 79.796571 
L 1379.570823 79.796571 
z
" style="fill:#1f77b4;"/>
   </g>
   <g id="patch_54">
    <path clip-path="url(#pd022d2b28d)" d="M 1416.054765 378 
L 1445.241919 378 
L 1445.241919 67.371429 
L 1416.054765 67.371429 
z
" style="fill:#1f77b4;"/>
   </g>
   <g id="patch_55">
    <path clip-path="url(#pd022d2b28d)" d="M 1452.538707 378 
L 1481.72586 378 
L 1481.72586 67.371429 
L 1452.538707 67.371429 
z
" style="fill:#1f77b4;"/>
   </g>
   <g id="patch_56">
    <path clip-path="url(#pd022d2b28d)" d="M 1489.022649 378 
L 1518.209802 378 
L 1518.209802 67.371429 
L 1489.022649 67.371429 
z
" style="fill:#1f77b4;"/>
   </g>
   <g id="patch_57">
    <path clip-path="url(#pd022d2b28d)" d="M 1525.506591 378 
L 1554.693744 378 
L 1554.693744 67.371429 
L 1525.506591 67.371429 
z
" style="fill:#1f77b4;"/>
   </g>
   <g id="patch_58">
    <path clip-path="url(#pd022d2b28d)" d="M 1561.990532 378 
L 1591.177686 378 
L 1591.177686 67.371429 
L 1561.990532 67.371429 
z
" style="fill:#1f77b4;"/>
   </g>
   <g id="patch_59">
    <path clip-path="url(#pd022d2b28d)" d="M 1014.731405 378 
L 1043.918558 378 
L 1043.918558 378 
L 1014.731405 378 
z
" style="fill:#2ca02c;"/>
   </g>
   <g id="patch_60">
    <path clip-path="url(#pd022d2b28d)" d="M 1051.215347 378 
L 1080.4025 378 
L 1080.4025 378 
L 1051.215347 378 
z
" style="fill:#2ca02c;"/>
   </g>
   <g id="patch_61">
    <path clip-path="url(#pd022d2b28d)" d="M 1087.699289 378 
L 1116.886442 378 
L 1116.886442 378 
L 1087.699289 378 
z
" style="fill:#2ca02c;"/>
   </g>
   <g id="patch_62">
    <path clip-path="url(#pd022d2b28d)" d="M 1124.18323 378 
L 1153.370384 378 
L 1153.370384 378 
L 1124.18323 378 
z
" style="fill:#2ca02c;"/>
   </g>
   <g id="patch_63">
    <path clip-path="url(#pd022d2b28d)" d="M 1160.667172 378 
L 1189.854326 378 
L 1189.854326 378 
L 1160.667172 378 
z
" style="fill:#2ca02c;"/>
   </g>
   <g id="patch_64">
    <path clip-path="url(#pd022d2b28d)" d="M 1197.151114 378 
L 1226.338268 378 
L 1226.338268 378 
L 1197.151114 378 
z
" style="fill:#2ca02c;"/>
   </g>
   <g id="patch_65">
    <path clip-path="url(#pd022d2b28d)" d="M 1233.635056 378 
L 1262.822209 378 
L 1262.822209 378 
L 1233.635056 378 
z
" style="fill:#2ca02c;"/>
   </g>
   <g id="patch_66">
    <path clip-path="url(#pd022d2b28d)" d="M 1270.118998 378 
L 1299.306151 378 
L 1299.306151 369.304388 
L 1270.118998 369.304388 
z
" style="fill:#2ca02c;"/>
   </g>
   <g id="patch_67">
    <path clip-path="url(#pd022d2b28d)" d="M 1306.60294 378 
L 1335.790093 378 
L 1335.790093 344.956674 
L 1306.60294 344.956674 
z
" style="fill:#2ca02c;"/>
   </g>
   <g id="patch_68">
    <path clip-path="url(#pd022d2b28d)" d="M 1343.086881 378 
L 1372.274035 378 
L 1372.274035 306.000333 
L 1343.086881 306.000333 
z
" style="fill:#2ca02c;"/>
   </g>
   <g id="patch_69">
    <path clip-path="url(#pd022d2b28d)" d="M 1379.570823 378 
L 1408.757977 378 
L 1408.757977 259.252723 
L 1379.570823 259.252723 
z
" style="fill:#2ca02c;"/>
   </g>
   <g id="patch_70">
    <path clip-path="url(#pd022d2b28d)" d="M 1416.054765 378 
L 1445.241919 378 
L 1445.241919 212.505113 
L 1416.054765 212.505113 
z
" style="fill:#2ca02c;"/>
   </g>
   <g id="patch_71">
    <path clip-path="url(#pd022d2b28d)" d="M 1452.538707 378 
L 1481.72586 378 
L 1481.72586 171.367216 
L 1452.538707 171.367216 
z
" style="fill:#2ca02c;"/>
   </g>
   <g id="patch_72">
    <path clip-path="url(#pd022d2b28d)" d="M 1489.022649 378 
L 1518.209802 378 
L 1518.209802 138.456899 
L 1489.022649 138.456899 
z
" style="fill:#2ca02c;"/>
   </g>
   <g id="patch_73">
    <path clip-path="url(#pd022d2b28d)" d="M 1525.506591 378 
L 1554.693744 378 
L 1554.693744 114.009234 
L 1525.506591 114.009234 
z
" style="fill:#2ca02c;"/>
   </g>
   <g id="patch_74">
    <path clip-path="url(#pd022d2b28d)" d="M 1561.990532 378 
L 1591.177686 378 
L 1591.177686 96.895869 
L 1561.990532 96.895869 
z
" style="fill:#2ca02c;"/>
   </g>
   <g id="matplotlib.axis_3">
    <g id="xtick_10">
     <g id="line2d_16">
      <g>
       <use style="stroke:#000000;stroke-width:0.8;" x="1029.324982" xlink:href="#m248f2c7f25" y="378"/>
      </g>
     </g>
     <g id="text_21">
      <!-- 0 -->
      <g transform="translate(1026.143732 392.598437)scale(0.1 -0.1)">
       <use xlink:href="#DejaVuSans-30"/>
      </g>
     </g>
    </g>
    <g id="xtick_11">
     <g id="line2d_17">
      <g>
       <use style="stroke:#000000;stroke-width:0.8;" x="1102.292865" xlink:href="#m248f2c7f25" y="378"/>
      </g>
     </g>
     <g id="text_22">
      <!-- 2 -->
      <g transform="translate(1099.111615 392.598437)scale(0.1 -0.1)">
       <use xlink:href="#DejaVuSans-32"/>
      </g>
     </g>
    </g>
    <g id="xtick_12">
     <g id="line2d_18">
      <g>
       <use style="stroke:#000000;stroke-width:0.8;" x="1175.260749" xlink:href="#m248f2c7f25" y="378"/>
      </g>
     </g>
     <g id="text_23">
      <!-- 4 -->
      <g transform="translate(1172.079499 392.598437)scale(0.1 -0.1)">
       <use xlink:href="#DejaVuSans-34"/>
      </g>
     </g>
    </g>
    <g id="xtick_13">
     <g id="line2d_19">
      <g>
       <use style="stroke:#000000;stroke-width:0.8;" x="1248.228633" xlink:href="#m248f2c7f25" y="378"/>
      </g>
     </g>
     <g id="text_24">
      <!-- 6 -->
      <g transform="translate(1245.047383 392.598437)scale(0.1 -0.1)">
       <use xlink:href="#DejaVuSans-36"/>
      </g>
     </g>
    </g>
    <g id="xtick_14">
     <g id="line2d_20">
      <g>
       <use style="stroke:#000000;stroke-width:0.8;" x="1321.196516" xlink:href="#m248f2c7f25" y="378"/>
      </g>
     </g>
     <g id="text_25">
      <!-- 8 -->
      <g transform="translate(1318.015266 392.598437)scale(0.1 -0.1)">
       <use xlink:href="#DejaVuSans-38"/>
      </g>
     </g>
    </g>
    <g id="xtick_15">
     <g id="line2d_21">
      <g>
       <use style="stroke:#000000;stroke-width:0.8;" x="1394.1644" xlink:href="#m248f2c7f25" y="378"/>
      </g>
     </g>
     <g id="text_26">
      <!-- 10 -->
      <g transform="translate(1387.8019 392.598437)scale(0.1 -0.1)">
       <use xlink:href="#DejaVuSans-31"/>
       <use x="63.623047" xlink:href="#DejaVuSans-30"/>
      </g>
     </g>
    </g>
    <g id="xtick_16">
     <g id="line2d_22">
      <g>
       <use style="stroke:#000000;stroke-width:0.8;" x="1467.132284" xlink:href="#m248f2c7f25" y="378"/>
      </g>
     </g>
     <g id="text_27">
      <!-- 12 -->
      <g transform="translate(1460.769784 392.598437)scale(0.1 -0.1)">
       <use xlink:href="#DejaVuSans-31"/>
       <use x="63.623047" xlink:href="#DejaVuSans-32"/>
      </g>
     </g>
    </g>
    <g id="xtick_17">
     <g id="line2d_23">
      <g>
       <use style="stroke:#000000;stroke-width:0.8;" x="1540.100167" xlink:href="#m248f2c7f25" y="378"/>
      </g>
     </g>
     <g id="text_28">
      <!-- 14 -->
      <g transform="translate(1533.737667 392.598437)scale(0.1 -0.1)">
       <use xlink:href="#DejaVuSans-31"/>
       <use x="63.623047" xlink:href="#DejaVuSans-34"/>
      </g>
     </g>
    </g>
    <g id="xtick_18">
     <g id="line2d_24">
      <g>
       <use style="stroke:#000000;stroke-width:0.8;" x="1613.068051" xlink:href="#m248f2c7f25" y="378"/>
      </g>
     </g>
     <g id="text_29">
      <!-- 16 -->
      <g transform="translate(1606.705551 392.598437)scale(0.1 -0.1)">
       <use xlink:href="#DejaVuSans-31"/>
       <use x="63.623047" xlink:href="#DejaVuSans-36"/>
      </g>
     </g>
    </g>
    <g id="text_30">
     <!-- Number of steps -->
     <g transform="translate(1240.698686 410.075781)scale(0.15 -0.15)">
      <use xlink:href="#DejaVuSans-4e"/>
      <use x="74.804688" xlink:href="#DejaVuSans-75"/>
      <use x="138.183594" xlink:href="#DejaVuSans-6d"/>
      <use x="235.595703" xlink:href="#DejaVuSans-62"/>
      <use x="299.072266" xlink:href="#DejaVuSans-65"/>
      <use x="360.595703" xlink:href="#DejaVuSans-72"/>
      <use x="401.708984" xlink:href="#DejaVuSans-20"/>
      <use x="433.496094" xlink:href="#DejaVuSans-6f"/>
      <use x="494.677734" xlink:href="#DejaVuSans-66"/>
      <use x="529.882812" xlink:href="#DejaVuSans-20"/>
      <use x="561.669922" xlink:href="#DejaVuSans-73"/>
      <use x="613.769531" xlink:href="#DejaVuSans-74"/>
      <use x="652.978516" xlink:href="#DejaVuSans-65"/>
      <use x="714.501953" xlink:href="#DejaVuSans-70"/>
      <use x="777.978516" xlink:href="#DejaVuSans-73"/>
     </g>
    </g>
   </g>
   <g id="matplotlib.axis_4">
    <g id="ytick_7">
     <g id="line2d_25">
      <g>
       <use style="stroke:#000000;stroke-width:0.8;" x="985.909091" xlink:href="#m80eb3076ce" y="378"/>
      </g>
     </g>
    </g>
    <g id="ytick_8">
     <g id="line2d_26">
      <g>
       <use style="stroke:#000000;stroke-width:0.8;" x="985.909091" xlink:href="#m80eb3076ce" y="315.874286"/>
      </g>
     </g>
    </g>
    <g id="ytick_9">
     <g id="line2d_27">
      <g>
       <use style="stroke:#000000;stroke-width:0.8;" x="985.909091" xlink:href="#m80eb3076ce" y="253.748571"/>
      </g>
     </g>
    </g>
    <g id="ytick_10">
     <g id="line2d_28">
      <g>
       <use style="stroke:#000000;stroke-width:0.8;" x="985.909091" xlink:href="#m80eb3076ce" y="191.622857"/>
      </g>
     </g>
    </g>
    <g id="ytick_11">
     <g id="line2d_29">
      <g>
       <use style="stroke:#000000;stroke-width:0.8;" x="985.909091" xlink:href="#m80eb3076ce" y="129.497143"/>
      </g>
     </g>
    </g>
    <g id="ytick_12">
     <g id="line2d_30">
      <g>
       <use style="stroke:#000000;stroke-width:0.8;" x="985.909091" xlink:href="#m80eb3076ce" y="67.371429"/>
      </g>
     </g>
    </g>
    <g id="text_31">
     <!-- Cumulative Proba. -->
     <g transform="translate(978.78956 284.041875)rotate(-90)scale(0.15 -0.15)">
      <use xlink:href="#DejaVuSans-43"/>
      <use x="69.824219" xlink:href="#DejaVuSans-75"/>
      <use x="133.203125" xlink:href="#DejaVuSans-6d"/>
      <use x="230.615234" xlink:href="#DejaVuSans-75"/>
      <use x="293.994141" xlink:href="#DejaVuSans-6c"/>
      <use x="321.777344" xlink:href="#DejaVuSans-61"/>
      <use x="383.056641" xlink:href="#DejaVuSans-74"/>
      <use x="422.265625" xlink:href="#DejaVuSans-69"/>
      <use x="450.048828" xlink:href="#DejaVuSans-76"/>
      <use x="509.228516" xlink:href="#DejaVuSans-65"/>
      <use x="570.751953" xlink:href="#DejaVuSans-20"/>
      <use x="602.539062" xlink:href="#DejaVuSans-50"/>
      <use x="662.826172" xlink:href="#DejaVuSans-72"/>
      <use x="703.908203" xlink:href="#DejaVuSans-6f"/>
      <use x="765.089844" xlink:href="#DejaVuSans-62"/>
      <use x="828.566406" xlink:href="#DejaVuSans-61"/>
      <use x="889.845703" xlink:href="#DejaVuSans-2e"/>
     </g>
    </g>
   </g>
   <g id="patch_75">
    <path d="M 985.909091 378 
L 985.909091 51.84 
" style="fill:none;stroke:#000000;stroke-linecap:square;stroke-linejoin:miter;stroke-width:0.8;"/>
   </g>
   <g id="patch_76">
    <path d="M 1620 378 
L 1620 51.84 
" style="fill:none;stroke:#000000;stroke-linecap:square;stroke-linejoin:miter;stroke-width:0.8;"/>
   </g>
   <g id="patch_77">
    <path d="M 985.909091 378 
L 1620 378 
" style="fill:none;stroke:#000000;stroke-linecap:square;stroke-linejoin:miter;stroke-width:0.8;"/>
   </g>
   <g id="patch_78">
    <path d="M 985.909091 51.84 
L 1620 51.84 
" style="fill:none;stroke:#000000;stroke-linecap:square;stroke-linejoin:miter;stroke-width:0.8;"/>
   </g>
   <g id="text_32">
    <!-- Comparison Between Exp. Distrib. and Th. Other Node Distrib. -->
    <defs>
     <path d="M 39.40625 66.21875 
Q 28.65625 66.21875 22.328125 58.203125 
Q 16.015625 50.203125 16.015625 36.375 
Q 16.015625 22.609375 22.328125 14.59375 
Q 28.65625 6.59375 39.40625 6.59375 
Q 50.140625 6.59375 56.421875 14.59375 
Q 62.703125 22.609375 62.703125 36.375 
Q 62.703125 50.203125 56.421875 58.203125 
Q 50.140625 66.21875 39.40625 66.21875 
z
M 39.40625 74.21875 
Q 54.734375 74.21875 63.90625 63.9375 
Q 73.09375 53.65625 73.09375 36.375 
Q 73.09375 19.140625 63.90625 8.859375 
Q 54.734375 -1.421875 39.40625 -1.421875 
Q 24.03125 -1.421875 14.8125 8.828125 
Q 5.609375 19.09375 5.609375 36.375 
Q 5.609375 53.65625 14.8125 63.9375 
Q 24.03125 74.21875 39.40625 74.21875 
z
" id="DejaVuSans-4f"/>
    </defs>
    <g transform="translate(991.156108 45.84)scale(0.2 -0.2)">
     <use xlink:href="#DejaVuSans-43"/>
     <use x="69.824219" xlink:href="#DejaVuSans-6f"/>
     <use x="131.005859" xlink:href="#DejaVuSans-6d"/>
     <use x="228.417969" xlink:href="#DejaVuSans-70"/>
     <use x="291.894531" xlink:href="#DejaVuSans-61"/>
     <use x="353.173828" xlink:href="#DejaVuSans-72"/>
     <use x="394.287109" xlink:href="#DejaVuSans-69"/>
     <use x="422.070312" xlink:href="#DejaVuSans-73"/>
     <use x="474.169922" xlink:href="#DejaVuSans-6f"/>
     <use x="535.351562" xlink:href="#DejaVuSans-6e"/>
     <use x="598.730469" xlink:href="#DejaVuSans-20"/>
     <use x="630.517578" xlink:href="#DejaVuSans-42"/>
     <use x="699.121094" xlink:href="#DejaVuSans-65"/>
     <use x="760.644531" xlink:href="#DejaVuSans-74"/>
     <use x="799.853516" xlink:href="#DejaVuSans-77"/>
     <use x="881.640625" xlink:href="#DejaVuSans-65"/>
     <use x="943.164062" xlink:href="#DejaVuSans-65"/>
     <use x="1004.6875" xlink:href="#DejaVuSans-6e"/>
     <use x="1068.066406" xlink:href="#DejaVuSans-20"/>
     <use x="1099.853516" xlink:href="#DejaVuSans-45"/>
     <use x="1163.037109" xlink:href="#DejaVuSans-78"/>
     <use x="1222.216797" xlink:href="#DejaVuSans-70"/>
     <use x="1285.693359" xlink:href="#DejaVuSans-2e"/>
     <use x="1317.480469" xlink:href="#DejaVuSans-20"/>
     <use x="1349.267578" xlink:href="#DejaVuSans-44"/>
     <use x="1426.269531" xlink:href="#DejaVuSans-69"/>
     <use x="1454.052734" xlink:href="#DejaVuSans-73"/>
     <use x="1506.152344" xlink:href="#DejaVuSans-74"/>
     <use x="1545.361328" xlink:href="#DejaVuSans-72"/>
     <use x="1586.474609" xlink:href="#DejaVuSans-69"/>
     <use x="1614.257812" xlink:href="#DejaVuSans-62"/>
     <use x="1677.734375" xlink:href="#DejaVuSans-2e"/>
     <use x="1709.521484" xlink:href="#DejaVuSans-20"/>
     <use x="1741.308594" xlink:href="#DejaVuSans-61"/>
     <use x="1802.587891" xlink:href="#DejaVuSans-6e"/>
     <use x="1865.966797" xlink:href="#DejaVuSans-64"/>
     <use x="1929.443359" xlink:href="#DejaVuSans-20"/>
     <use x="1961.230469" xlink:href="#DejaVuSans-54"/>
     <use x="2022.314453" xlink:href="#DejaVuSans-68"/>
     <use x="2085.693359" xlink:href="#DejaVuSans-2e"/>
     <use x="2117.480469" xlink:href="#DejaVuSans-20"/>
     <use x="2149.267578" xlink:href="#DejaVuSans-4f"/>
     <use x="2227.978516" xlink:href="#DejaVuSans-74"/>
     <use x="2267.1875" xlink:href="#DejaVuSans-68"/>
     <use x="2330.566406" xlink:href="#DejaVuSans-65"/>
     <use x="2392.089844" xlink:href="#DejaVuSans-72"/>
     <use x="2433.203125" xlink:href="#DejaVuSans-20"/>
     <use x="2464.990234" xlink:href="#DejaVuSans-4e"/>
     <use x="2539.794922" xlink:href="#DejaVuSans-6f"/>
     <use x="2600.976562" xlink:href="#DejaVuSans-64"/>
     <use x="2664.453125" xlink:href="#DejaVuSans-65"/>
     <use x="2725.976562" xlink:href="#DejaVuSans-20"/>
     <use x="2757.763672" xlink:href="#DejaVuSans-44"/>
     <use x="2834.765625" xlink:href="#DejaVuSans-69"/>
     <use x="2862.548828" xlink:href="#DejaVuSans-73"/>
     <use x="2914.648438" xlink:href="#DejaVuSans-74"/>
     <use x="2953.857422" xlink:href="#DejaVuSans-72"/>
     <use x="2994.970703" xlink:href="#DejaVuSans-69"/>
     <use x="3022.753906" xlink:href="#DejaVuSans-62"/>
     <use x="3086.230469" xlink:href="#DejaVuSans-2e"/>
    </g>
   </g>
   <g id="legend_2">
    <g id="patch_79">
     <path d="M 996.409091 107.874375 
L 1213.578622 107.874375 
Q 1216.578622 107.874375 1216.578622 104.874375 
L 1216.578622 62.34 
Q 1216.578622 59.34 1213.578622 59.34 
L 996.409091 59.34 
Q 993.409091 59.34 993.409091 62.34 
L 993.409091 104.874375 
Q 993.409091 107.874375 996.409091 107.874375 
z
" style="fill:#ffffff;opacity:0.8;stroke:#cccccc;stroke-linejoin:miter;"/>
    </g>
    <g id="patch_80">
     <path d="M 999.409091 76.737656 
L 1029.409091 76.737656 
L 1029.409091 66.237656 
L 999.409091 66.237656 
z
" style="fill:#1f77b4;"/>
    </g>
    <g id="text_33">
     <!-- Exp. Distrib -->
     <g transform="translate(1041.409091 76.737656)scale(0.15 -0.15)">
      <use xlink:href="#DejaVuSans-45"/>
      <use x="63.183594" xlink:href="#DejaVuSans-78"/>
      <use x="122.363281" xlink:href="#DejaVuSans-70"/>
      <use x="185.839844" xlink:href="#DejaVuSans-2e"/>
      <use x="217.626953" xlink:href="#DejaVuSans-20"/>
      <use x="249.414062" xlink:href="#DejaVuSans-44"/>
      <use x="326.416016" xlink:href="#DejaVuSans-69"/>
      <use x="354.199219" xlink:href="#DejaVuSans-73"/>
      <use x="406.298828" xlink:href="#DejaVuSans-74"/>
      <use x="445.507812" xlink:href="#DejaVuSans-72"/>
      <use x="486.621094" xlink:href="#DejaVuSans-69"/>
      <use x="514.404297" xlink:href="#DejaVuSans-62"/>
     </g>
    </g>
    <g id="patch_81">
     <path d="M 999.409091 98.754844 
L 1029.409091 98.754844 
L 1029.409091 88.254844 
L 999.409091 88.254844 
z
" style="fill:#2ca02c;"/>
    </g>
    <g id="text_34">
     <!-- Th. Distrib. other node -->
     <g transform="translate(1041.409091 98.754844)scale(0.15 -0.15)">
      <use xlink:href="#DejaVuSans-54"/>
      <use x="61.083984" xlink:href="#DejaVuSans-68"/>
      <use x="124.462891" xlink:href="#DejaVuSans-2e"/>
      <use x="156.25" xlink:href="#DejaVuSans-20"/>
      <use x="188.037109" xlink:href="#DejaVuSans-44"/>
      <use x="265.039062" xlink:href="#DejaVuSans-69"/>
      <use x="292.822266" xlink:href="#DejaVuSans-73"/>
      <use x="344.921875" xlink:href="#DejaVuSans-74"/>
      <use x="384.130859" xlink:href="#DejaVuSans-72"/>
      <use x="425.244141" xlink:href="#DejaVuSans-69"/>
      <use x="453.027344" xlink:href="#DejaVuSans-62"/>
      <use x="516.503906" xlink:href="#DejaVuSans-2e"/>
      <use x="548.291016" xlink:href="#DejaVuSans-20"/>
      <use x="580.078125" xlink:href="#DejaVuSans-6f"/>
      <use x="641.259766" xlink:href="#DejaVuSans-74"/>
      <use x="680.46875" xlink:href="#DejaVuSans-68"/>
      <use x="743.847656" xlink:href="#DejaVuSans-65"/>
      <use x="805.371094" xlink:href="#DejaVuSans-72"/>
      <use x="846.484375" xlink:href="#DejaVuSans-20"/>
      <use x="878.271484" xlink:href="#DejaVuSans-6e"/>
      <use x="941.650391" xlink:href="#DejaVuSans-6f"/>
      <use x="1002.832031" xlink:href="#DejaVuSans-64"/>
      <use x="1066.308594" xlink:href="#DejaVuSans-65"/>
     </g>
    </g>
   </g>
  </g>
  <g id="text_35">
   <!-- Rumour Arrival Cumulative Distribution Comparison -->
   <defs>
    <path d="M 34.1875 63.1875 
L 20.796875 26.90625 
L 47.609375 26.90625 
z
M 28.609375 72.90625 
L 39.796875 72.90625 
L 67.578125 0 
L 57.328125 0 
L 50.6875 18.703125 
L 17.828125 18.703125 
L 11.1875 0 
L 0.78125 0 
z
" id="DejaVuSans-41"/>
   </defs>
   <g transform="translate(574.6875 27.636094)scale(0.25 -0.25)">
    <use xlink:href="#DejaVuSans-52"/>
    <use x="69.419922" xlink:href="#DejaVuSans-75"/>
    <use x="132.798828" xlink:href="#DejaVuSans-6d"/>
    <use x="230.210938" xlink:href="#DejaVuSans-6f"/>
    <use x="291.392578" xlink:href="#DejaVuSans-75"/>
    <use x="354.771484" xlink:href="#DejaVuSans-72"/>
    <use x="395.884766" xlink:href="#DejaVuSans-20"/>
    <use x="427.671875" xlink:href="#DejaVuSans-41"/>
    <use x="496.080078" xlink:href="#DejaVuSans-72"/>
    <use x="537.177734" xlink:href="#DejaVuSans-72"/>
    <use x="578.291016" xlink:href="#DejaVuSans-69"/>
    <use x="606.074219" xlink:href="#DejaVuSans-76"/>
    <use x="665.253906" xlink:href="#DejaVuSans-61"/>
    <use x="726.533203" xlink:href="#DejaVuSans-6c"/>
    <use x="754.316406" xlink:href="#DejaVuSans-20"/>
    <use x="786.103516" xlink:href="#DejaVuSans-43"/>
    <use x="855.927734" xlink:href="#DejaVuSans-75"/>
    <use x="919.306641" xlink:href="#DejaVuSans-6d"/>
    <use x="1016.71875" xlink:href="#DejaVuSans-75"/>
    <use x="1080.097656" xlink:href="#DejaVuSans-6c"/>
    <use x="1107.880859" xlink:href="#DejaVuSans-61"/>
    <use x="1169.160156" xlink:href="#DejaVuSans-74"/>
    <use x="1208.369141" xlink:href="#DejaVuSans-69"/>
    <use x="1236.152344" xlink:href="#DejaVuSans-76"/>
    <use x="1295.332031" xlink:href="#DejaVuSans-65"/>
    <use x="1356.855469" xlink:href="#DejaVuSans-20"/>
    <use x="1388.642578" xlink:href="#DejaVuSans-44"/>
    <use x="1465.644531" xlink:href="#DejaVuSans-69"/>
    <use x="1493.427734" xlink:href="#DejaVuSans-73"/>
    <use x="1545.527344" xlink:href="#DejaVuSans-74"/>
    <use x="1584.736328" xlink:href="#DejaVuSans-72"/>
    <use x="1625.849609" xlink:href="#DejaVuSans-69"/>
    <use x="1653.632812" xlink:href="#DejaVuSans-62"/>
    <use x="1717.109375" xlink:href="#DejaVuSans-75"/>
    <use x="1780.488281" xlink:href="#DejaVuSans-74"/>
    <use x="1819.697266" xlink:href="#DejaVuSans-69"/>
    <use x="1847.480469" xlink:href="#DejaVuSans-6f"/>
    <use x="1908.662109" xlink:href="#DejaVuSans-6e"/>
    <use x="1972.041016" xlink:href="#DejaVuSans-20"/>
    <use x="2003.828125" xlink:href="#DejaVuSans-43"/>
    <use x="2073.652344" xlink:href="#DejaVuSans-6f"/>
    <use x="2134.833984" xlink:href="#DejaVuSans-6d"/>
    <use x="2232.246094" xlink:href="#DejaVuSans-70"/>
    <use x="2295.722656" xlink:href="#DejaVuSans-61"/>
    <use x="2357.001953" xlink:href="#DejaVuSans-72"/>
    <use x="2398.115234" xlink:href="#DejaVuSans-69"/>
    <use x="2425.898438" xlink:href="#DejaVuSans-73"/>
    <use x="2477.998047" xlink:href="#DejaVuSans-6f"/>
    <use x="2539.179688" xlink:href="#DejaVuSans-6e"/>
   </g>
  </g>
 </g>
 <defs>
  <clipPath id="p80cfba6dca">
   <rect height="326.16" width="634.090909" x="225" y="51.84"/>
  </clipPath>
  <clipPath id="pd022d2b28d">
   <rect height="326.16" width="634.090909" x="985.909091" y="51.84"/>
  </clipPath>
 </defs>
</svg>
