<?xml version="1.0" encoding="utf-8" standalone="no"?>
<!DOCTYPE svg PUBLIC "-//W3C//DTD SVG 1.1//EN"
  "http://www.w3.org/Graphics/SVG/1.1/DTD/svg11.dtd">
<!-- Created with matplotlib (http://matplotlib.org/) -->
<svg height="360pt" version="1.1" viewBox="0 0 612 360" width="612pt" xmlns="http://www.w3.org/2000/svg" xmlns:xlink="http://www.w3.org/1999/xlink">
 <defs>
  <style type="text/css">
*{stroke-linecap:butt;stroke-linejoin:round;}
  </style>
 </defs>
 <g id="figure_1">
  <g id="patch_1">
   <path d="M 0 360 
L 612 360 
L 612 0 
L 0 0 
z
" style="fill:#ffffff;"/>
  </g>
  <g id="axes_1">
   <g id="LineCollection_1">
    <path clip-path="url(#p9657fc090d)" d="M 169.185932 259.171017 
L 219.492531 218.810279 
" style="fill:none;stroke:#000000;"/>
    <path clip-path="url(#p9657fc090d)" d="M 169.185932 259.171017 
L 117.658264 186.841782 
" style="fill:none;stroke:#000000;"/>
    <path clip-path="url(#p9657fc090d)" d="M 169.185932 259.171017 
L 302.449709 291.41405 
" style="fill:none;stroke:#000000;"/>
    <path clip-path="url(#p9657fc090d)" d="M 219.492531 218.810279 
L 302.449709 291.41405 
" style="fill:none;stroke:#000000;"/>
    <path clip-path="url(#p9657fc090d)" d="M 219.492531 218.810279 
L 117.658264 186.841782 
" style="fill:none;stroke:#000000;"/>
    <path clip-path="url(#p9657fc090d)" d="M 219.492531 218.810279 
L 288.5511 131.098298 
" style="fill:none;stroke:#000000;"/>
    <path clip-path="url(#p9657fc090d)" d="M 219.492531 218.810279 
L 336.543187 188.346061 
" style="fill:none;stroke:#000000;"/>
    <path clip-path="url(#p9657fc090d)" d="M 302.449709 291.41405 
L 416.746862 286.244398 
" style="fill:none;stroke:#000000;"/>
    <path clip-path="url(#p9657fc090d)" d="M 302.449709 291.41405 
L 470.603907 262.837045 
" style="fill:none;stroke:#000000;"/>
    <path clip-path="url(#p9657fc090d)" d="M 416.746862 286.244398 
L 470.603907 262.837045 
" style="fill:none;stroke:#000000;"/>
    <path clip-path="url(#p9657fc090d)" d="M 416.746862 286.244398 
L 509.641736 218.472705 
" style="fill:none;stroke:#000000;"/>
    <path clip-path="url(#p9657fc090d)" d="M 470.603907 262.837045 
L 509.641736 218.472705 
" style="fill:none;stroke:#000000;"/>
    <path clip-path="url(#p9657fc090d)" d="M 470.603907 262.837045 
L 468.914599 170.342293 
" style="fill:none;stroke:#000000;"/>
    <path clip-path="url(#p9657fc090d)" d="M 509.641736 218.472705 
L 468.914599 170.342293 
" style="fill:none;stroke:#000000;"/>
    <path clip-path="url(#p9657fc090d)" d="M 509.641736 218.472705 
L 378.769144 140.091446 
" style="fill:none;stroke:#000000;"/>
    <path clip-path="url(#p9657fc090d)" d="M 468.914599 170.342293 
L 378.769144 140.091446 
" style="fill:none;stroke:#000000;"/>
    <path clip-path="url(#p9657fc090d)" d="M 468.914599 170.342293 
L 336.543187 188.346061 
" style="fill:none;stroke:#000000;"/>
    <path clip-path="url(#p9657fc090d)" d="M 468.914599 170.342293 
L 360.834342 85.790028 
" style="fill:none;stroke:#000000;"/>
    <path clip-path="url(#p9657fc090d)" d="M 378.769144 140.091446 
L 336.543187 188.346061 
" style="fill:none;stroke:#000000;"/>
    <path clip-path="url(#p9657fc090d)" d="M 378.769144 140.091446 
L 288.5511 131.098298 
" style="fill:none;stroke:#000000;"/>
    <path clip-path="url(#p9657fc090d)" d="M 378.769144 140.091446 
L 310.808259 66.78595 
" style="fill:none;stroke:#000000;"/>
    <path clip-path="url(#p9657fc090d)" d="M 378.769144 140.091446 
L 199.790302 107.568787 
" style="fill:none;stroke:#000000;"/>
    <path clip-path="url(#p9657fc090d)" d="M 336.543187 188.346061 
L 288.5511 131.098298 
" style="fill:none;stroke:#000000;"/>
    <path clip-path="url(#p9657fc090d)" d="M 288.5511 131.098298 
L 413.948457 78.547511 
" style="fill:none;stroke:#000000;"/>
    <path clip-path="url(#p9657fc090d)" d="M 288.5511 131.098298 
L 310.808259 66.78595 
" style="fill:none;stroke:#000000;"/>
    <path clip-path="url(#p9657fc090d)" d="M 413.948457 78.547511 
L 310.808259 66.78595 
" style="fill:none;stroke:#000000;"/>
    <path clip-path="url(#p9657fc090d)" d="M 413.948457 78.547511 
L 360.834342 85.790028 
" style="fill:none;stroke:#000000;"/>
    <path clip-path="url(#p9657fc090d)" d="M 310.808259 66.78595 
L 360.834342 85.790028 
" style="fill:none;stroke:#000000;"/>
    <path clip-path="url(#p9657fc090d)" d="M 360.834342 85.790028 
L 199.790302 107.568787 
" style="fill:none;stroke:#000000;"/>
    <path clip-path="url(#p9657fc090d)" d="M 199.790302 107.568787 
L 117.658264 186.841782 
" style="fill:none;stroke:#000000;"/>
   </g>
   <g id="PathCollection_1">
    <defs>
     <path d="M 0 8.660254 
C 2.296726 8.660254 4.499694 7.747755 6.123724 6.123724 
C 7.747755 4.499694 8.660254 2.296726 8.660254 0 
C 8.660254 -2.296726 7.747755 -4.499694 6.123724 -6.123724 
C 4.499694 -7.747755 2.296726 -8.660254 0 -8.660254 
C -2.296726 -8.660254 -4.499694 -7.747755 -6.123724 -6.123724 
C -7.747755 -4.499694 -8.660254 -2.296726 -8.660254 0 
C -8.660254 2.296726 -7.747755 4.499694 -6.123724 6.123724 
C -4.499694 7.747755 -2.296726 8.660254 0 8.660254 
z
" id="mc088276ddf" style="stroke:#ff0000;"/>
    </defs>
    <g clip-path="url(#p9657fc090d)">
     <use style="fill:#ff0000;stroke:#ff0000;" x="169.185932" xlink:href="#mc088276ddf" y="259.171017"/>
     <use style="fill:#ff0000;stroke:#ff0000;" x="219.492531" xlink:href="#mc088276ddf" y="218.810279"/>
     <use style="fill:#ff0000;stroke:#ff0000;" x="302.449709" xlink:href="#mc088276ddf" y="291.41405"/>
     <use style="fill:#ff0000;stroke:#ff0000;" x="416.746862" xlink:href="#mc088276ddf" y="286.244398"/>
     <use style="fill:#ff0000;stroke:#ff0000;" x="470.603907" xlink:href="#mc088276ddf" y="262.837045"/>
     <use style="fill:#ff0000;stroke:#ff0000;" x="509.641736" xlink:href="#mc088276ddf" y="218.472705"/>
     <use style="fill:#ff0000;stroke:#ff0000;" x="468.914599" xlink:href="#mc088276ddf" y="170.342293"/>
     <use style="fill:#ff0000;stroke:#ff0000;" x="378.769144" xlink:href="#mc088276ddf" y="140.091446"/>
     <use style="fill:#ff0000;stroke:#ff0000;" x="336.543187" xlink:href="#mc088276ddf" y="188.346061"/>
     <use style="fill:#ff0000;stroke:#ff0000;" x="288.5511" xlink:href="#mc088276ddf" y="131.098298"/>
     <use style="fill:#ff0000;stroke:#ff0000;" x="413.948457" xlink:href="#mc088276ddf" y="78.547511"/>
     <use style="fill:#ff0000;stroke:#ff0000;" x="310.808259" xlink:href="#mc088276ddf" y="66.78595"/>
     <use style="fill:#ff0000;stroke:#ff0000;" x="360.834342" xlink:href="#mc088276ddf" y="85.790028"/>
     <use style="fill:#ff0000;stroke:#ff0000;" x="199.790302" xlink:href="#mc088276ddf" y="107.568787"/>
     <use style="fill:#ff0000;stroke:#ff0000;" x="117.658264" xlink:href="#mc088276ddf" y="186.841782"/>
    </g>
   </g>
   <g id="text_1">
    <!-- Example of Rumour First Arrival Time Use -->
    <defs>
     <path d="M 9.8125 72.90625 
L 55.90625 72.90625 
L 55.90625 64.59375 
L 19.671875 64.59375 
L 19.671875 43.015625 
L 54.390625 43.015625 
L 54.390625 34.71875 
L 19.671875 34.71875 
L 19.671875 8.296875 
L 56.78125 8.296875 
L 56.78125 0 
L 9.8125 0 
z
" id="DejaVuSans-45"/>
     <path d="M 54.890625 54.6875 
L 35.109375 28.078125 
L 55.90625 0 
L 45.3125 0 
L 29.390625 21.484375 
L 13.484375 0 
L 2.875 0 
L 24.125 28.609375 
L 4.6875 54.6875 
L 15.28125 54.6875 
L 29.78125 35.203125 
L 44.28125 54.6875 
z
" id="DejaVuSans-78"/>
     <path d="M 34.28125 27.484375 
Q 23.390625 27.484375 19.1875 25 
Q 14.984375 22.515625 14.984375 16.5 
Q 14.984375 11.71875 18.140625 8.90625 
Q 21.296875 6.109375 26.703125 6.109375 
Q 34.1875 6.109375 38.703125 11.40625 
Q 43.21875 16.703125 43.21875 25.484375 
L 43.21875 27.484375 
z
M 52.203125 31.203125 
L 52.203125 0 
L 43.21875 0 
L 43.21875 8.296875 
Q 40.140625 3.328125 35.546875 0.953125 
Q 30.953125 -1.421875 24.3125 -1.421875 
Q 15.921875 -1.421875 10.953125 3.296875 
Q 6 8.015625 6 15.921875 
Q 6 25.140625 12.171875 29.828125 
Q 18.359375 34.515625 30.609375 34.515625 
L 43.21875 34.515625 
L 43.21875 35.40625 
Q 43.21875 41.609375 39.140625 45 
Q 35.0625 48.390625 27.6875 48.390625 
Q 23 48.390625 18.546875 47.265625 
Q 14.109375 46.140625 10.015625 43.890625 
L 10.015625 52.203125 
Q 14.9375 54.109375 19.578125 55.046875 
Q 24.21875 56 28.609375 56 
Q 40.484375 56 46.34375 49.84375 
Q 52.203125 43.703125 52.203125 31.203125 
z
" id="DejaVuSans-61"/>
     <path d="M 52 44.1875 
Q 55.375 50.25 60.0625 53.125 
Q 64.75 56 71.09375 56 
Q 79.640625 56 84.28125 50.015625 
Q 88.921875 44.046875 88.921875 33.015625 
L 88.921875 0 
L 79.890625 0 
L 79.890625 32.71875 
Q 79.890625 40.578125 77.09375 44.375 
Q 74.3125 48.1875 68.609375 48.1875 
Q 61.625 48.1875 57.5625 43.546875 
Q 53.515625 38.921875 53.515625 30.90625 
L 53.515625 0 
L 44.484375 0 
L 44.484375 32.71875 
Q 44.484375 40.625 41.703125 44.40625 
Q 38.921875 48.1875 33.109375 48.1875 
Q 26.21875 48.1875 22.15625 43.53125 
Q 18.109375 38.875 18.109375 30.90625 
L 18.109375 0 
L 9.078125 0 
L 9.078125 54.6875 
L 18.109375 54.6875 
L 18.109375 46.1875 
Q 21.1875 51.21875 25.484375 53.609375 
Q 29.78125 56 35.6875 56 
Q 41.65625 56 45.828125 52.96875 
Q 50 49.953125 52 44.1875 
z
" id="DejaVuSans-6d"/>
     <path d="M 18.109375 8.203125 
L 18.109375 -20.796875 
L 9.078125 -20.796875 
L 9.078125 54.6875 
L 18.109375 54.6875 
L 18.109375 46.390625 
Q 20.953125 51.265625 25.265625 53.625 
Q 29.59375 56 35.59375 56 
Q 45.5625 56 51.78125 48.09375 
Q 58.015625 40.1875 58.015625 27.296875 
Q 58.015625 14.40625 51.78125 6.484375 
Q 45.5625 -1.421875 35.59375 -1.421875 
Q 29.59375 -1.421875 25.265625 0.953125 
Q 20.953125 3.328125 18.109375 8.203125 
z
M 48.6875 27.296875 
Q 48.6875 37.203125 44.609375 42.84375 
Q 40.53125 48.484375 33.40625 48.484375 
Q 26.265625 48.484375 22.1875 42.84375 
Q 18.109375 37.203125 18.109375 27.296875 
Q 18.109375 17.390625 22.1875 11.75 
Q 26.265625 6.109375 33.40625 6.109375 
Q 40.53125 6.109375 44.609375 11.75 
Q 48.6875 17.390625 48.6875 27.296875 
z
" id="DejaVuSans-70"/>
     <path d="M 9.421875 75.984375 
L 18.40625 75.984375 
L 18.40625 0 
L 9.421875 0 
z
" id="DejaVuSans-6c"/>
     <path d="M 56.203125 29.59375 
L 56.203125 25.203125 
L 14.890625 25.203125 
Q 15.484375 15.921875 20.484375 11.0625 
Q 25.484375 6.203125 34.421875 6.203125 
Q 39.59375 6.203125 44.453125 7.46875 
Q 49.3125 8.734375 54.109375 11.28125 
L 54.109375 2.78125 
Q 49.265625 0.734375 44.1875 -0.34375 
Q 39.109375 -1.421875 33.890625 -1.421875 
Q 20.796875 -1.421875 13.15625 6.1875 
Q 5.515625 13.8125 5.515625 26.8125 
Q 5.515625 40.234375 12.765625 48.109375 
Q 20.015625 56 32.328125 56 
Q 43.359375 56 49.78125 48.890625 
Q 56.203125 41.796875 56.203125 29.59375 
z
M 47.21875 32.234375 
Q 47.125 39.59375 43.09375 43.984375 
Q 39.0625 48.390625 32.421875 48.390625 
Q 24.90625 48.390625 20.390625 44.140625 
Q 15.875 39.890625 15.1875 32.171875 
z
" id="DejaVuSans-65"/>
     <path id="DejaVuSans-20"/>
     <path d="M 30.609375 48.390625 
Q 23.390625 48.390625 19.1875 42.75 
Q 14.984375 37.109375 14.984375 27.296875 
Q 14.984375 17.484375 19.15625 11.84375 
Q 23.34375 6.203125 30.609375 6.203125 
Q 37.796875 6.203125 41.984375 11.859375 
Q 46.1875 17.53125 46.1875 27.296875 
Q 46.1875 37.015625 41.984375 42.703125 
Q 37.796875 48.390625 30.609375 48.390625 
z
M 30.609375 56 
Q 42.328125 56 49.015625 48.375 
Q 55.71875 40.765625 55.71875 27.296875 
Q 55.71875 13.875 49.015625 6.21875 
Q 42.328125 -1.421875 30.609375 -1.421875 
Q 18.84375 -1.421875 12.171875 6.21875 
Q 5.515625 13.875 5.515625 27.296875 
Q 5.515625 40.765625 12.171875 48.375 
Q 18.84375 56 30.609375 56 
z
" id="DejaVuSans-6f"/>
     <path d="M 37.109375 75.984375 
L 37.109375 68.5 
L 28.515625 68.5 
Q 23.6875 68.5 21.796875 66.546875 
Q 19.921875 64.59375 19.921875 59.515625 
L 19.921875 54.6875 
L 34.71875 54.6875 
L 34.71875 47.703125 
L 19.921875 47.703125 
L 19.921875 0 
L 10.890625 0 
L 10.890625 47.703125 
L 2.296875 47.703125 
L 2.296875 54.6875 
L 10.890625 54.6875 
L 10.890625 58.5 
Q 10.890625 67.625 15.140625 71.796875 
Q 19.390625 75.984375 28.609375 75.984375 
z
" id="DejaVuSans-66"/>
     <path d="M 44.390625 34.1875 
Q 47.5625 33.109375 50.5625 29.59375 
Q 53.5625 26.078125 56.59375 19.921875 
L 66.609375 0 
L 56 0 
L 46.6875 18.703125 
Q 43.0625 26.03125 39.671875 28.421875 
Q 36.28125 30.8125 30.421875 30.8125 
L 19.671875 30.8125 
L 19.671875 0 
L 9.8125 0 
L 9.8125 72.90625 
L 32.078125 72.90625 
Q 44.578125 72.90625 50.734375 67.671875 
Q 56.890625 62.453125 56.890625 51.90625 
Q 56.890625 45.015625 53.6875 40.46875 
Q 50.484375 35.9375 44.390625 34.1875 
z
M 19.671875 64.796875 
L 19.671875 38.921875 
L 32.078125 38.921875 
Q 39.203125 38.921875 42.84375 42.21875 
Q 46.484375 45.515625 46.484375 51.90625 
Q 46.484375 58.296875 42.84375 61.546875 
Q 39.203125 64.796875 32.078125 64.796875 
z
" id="DejaVuSans-52"/>
     <path d="M 8.5 21.578125 
L 8.5 54.6875 
L 17.484375 54.6875 
L 17.484375 21.921875 
Q 17.484375 14.15625 20.5 10.265625 
Q 23.53125 6.390625 29.59375 6.390625 
Q 36.859375 6.390625 41.078125 11.03125 
Q 45.3125 15.671875 45.3125 23.6875 
L 45.3125 54.6875 
L 54.296875 54.6875 
L 54.296875 0 
L 45.3125 0 
L 45.3125 8.40625 
Q 42.046875 3.421875 37.71875 1 
Q 33.40625 -1.421875 27.6875 -1.421875 
Q 18.265625 -1.421875 13.375 4.4375 
Q 8.5 10.296875 8.5 21.578125 
z
M 31.109375 56 
z
" id="DejaVuSans-75"/>
     <path d="M 41.109375 46.296875 
Q 39.59375 47.171875 37.8125 47.578125 
Q 36.03125 48 33.890625 48 
Q 26.265625 48 22.1875 43.046875 
Q 18.109375 38.09375 18.109375 28.8125 
L 18.109375 0 
L 9.078125 0 
L 9.078125 54.6875 
L 18.109375 54.6875 
L 18.109375 46.1875 
Q 20.953125 51.171875 25.484375 53.578125 
Q 30.03125 56 36.53125 56 
Q 37.453125 56 38.578125 55.875 
Q 39.703125 55.765625 41.0625 55.515625 
z
" id="DejaVuSans-72"/>
     <path d="M 9.8125 72.90625 
L 51.703125 72.90625 
L 51.703125 64.59375 
L 19.671875 64.59375 
L 19.671875 43.109375 
L 48.578125 43.109375 
L 48.578125 34.8125 
L 19.671875 34.8125 
L 19.671875 0 
L 9.8125 0 
z
" id="DejaVuSans-46"/>
     <path d="M 9.421875 54.6875 
L 18.40625 54.6875 
L 18.40625 0 
L 9.421875 0 
z
M 9.421875 75.984375 
L 18.40625 75.984375 
L 18.40625 64.59375 
L 9.421875 64.59375 
z
" id="DejaVuSans-69"/>
     <path d="M 44.28125 53.078125 
L 44.28125 44.578125 
Q 40.484375 46.53125 36.375 47.5 
Q 32.28125 48.484375 27.875 48.484375 
Q 21.1875 48.484375 17.84375 46.4375 
Q 14.5 44.390625 14.5 40.28125 
Q 14.5 37.15625 16.890625 35.375 
Q 19.28125 33.59375 26.515625 31.984375 
L 29.59375 31.296875 
Q 39.15625 29.25 43.1875 25.515625 
Q 47.21875 21.78125 47.21875 15.09375 
Q 47.21875 7.46875 41.1875 3.015625 
Q 35.15625 -1.421875 24.609375 -1.421875 
Q 20.21875 -1.421875 15.453125 -0.5625 
Q 10.6875 0.296875 5.421875 2 
L 5.421875 11.28125 
Q 10.40625 8.6875 15.234375 7.390625 
Q 20.0625 6.109375 24.8125 6.109375 
Q 31.15625 6.109375 34.5625 8.28125 
Q 37.984375 10.453125 37.984375 14.40625 
Q 37.984375 18.0625 35.515625 20.015625 
Q 33.0625 21.96875 24.703125 23.78125 
L 21.578125 24.515625 
Q 13.234375 26.265625 9.515625 29.90625 
Q 5.8125 33.546875 5.8125 39.890625 
Q 5.8125 47.609375 11.28125 51.796875 
Q 16.75 56 26.8125 56 
Q 31.78125 56 36.171875 55.265625 
Q 40.578125 54.546875 44.28125 53.078125 
z
" id="DejaVuSans-73"/>
     <path d="M 18.3125 70.21875 
L 18.3125 54.6875 
L 36.8125 54.6875 
L 36.8125 47.703125 
L 18.3125 47.703125 
L 18.3125 18.015625 
Q 18.3125 11.328125 20.140625 9.421875 
Q 21.96875 7.515625 27.59375 7.515625 
L 36.8125 7.515625 
L 36.8125 0 
L 27.59375 0 
Q 17.1875 0 13.234375 3.875 
Q 9.28125 7.765625 9.28125 18.015625 
L 9.28125 47.703125 
L 2.6875 47.703125 
L 2.6875 54.6875 
L 9.28125 54.6875 
L 9.28125 70.21875 
z
" id="DejaVuSans-74"/>
     <path d="M 34.1875 63.1875 
L 20.796875 26.90625 
L 47.609375 26.90625 
z
M 28.609375 72.90625 
L 39.796875 72.90625 
L 67.578125 0 
L 57.328125 0 
L 50.6875 18.703125 
L 17.828125 18.703125 
L 11.1875 0 
L 0.78125 0 
z
" id="DejaVuSans-41"/>
     <path d="M 2.984375 54.6875 
L 12.5 54.6875 
L 29.59375 8.796875 
L 46.6875 54.6875 
L 56.203125 54.6875 
L 35.6875 0 
L 23.484375 0 
z
" id="DejaVuSans-76"/>
     <path d="M -0.296875 72.90625 
L 61.375 72.90625 
L 61.375 64.59375 
L 35.5 64.59375 
L 35.5 0 
L 25.59375 0 
L 25.59375 64.59375 
L -0.296875 64.59375 
z
" id="DejaVuSans-54"/>
     <path d="M 8.6875 72.90625 
L 18.609375 72.90625 
L 18.609375 28.609375 
Q 18.609375 16.890625 22.84375 11.734375 
Q 27.09375 6.59375 36.625 6.59375 
Q 46.09375 6.59375 50.34375 11.734375 
Q 54.59375 16.890625 54.59375 28.609375 
L 54.59375 72.90625 
L 64.5 72.90625 
L 64.5 27.390625 
Q 64.5 13.140625 57.4375 5.859375 
Q 50.390625 -1.421875 36.625 -1.421875 
Q 22.796875 -1.421875 15.734375 5.859375 
Q 8.6875 13.140625 8.6875 27.390625 
z
" id="DejaVuSans-55"/>
    </defs>
    <g transform="translate(104.089063 14.804375)scale(0.2 -0.2)">
     <use xlink:href="#DejaVuSans-45"/>
     <use x="63.183594" xlink:href="#DejaVuSans-78"/>
     <use x="122.363281" xlink:href="#DejaVuSans-61"/>
     <use x="183.642578" xlink:href="#DejaVuSans-6d"/>
     <use x="281.054688" xlink:href="#DejaVuSans-70"/>
     <use x="344.53125" xlink:href="#DejaVuSans-6c"/>
     <use x="372.314453" xlink:href="#DejaVuSans-65"/>
     <use x="433.837891" xlink:href="#DejaVuSans-20"/>
     <use x="465.625" xlink:href="#DejaVuSans-6f"/>
     <use x="526.806641" xlink:href="#DejaVuSans-66"/>
     <use x="562.011719" xlink:href="#DejaVuSans-20"/>
     <use x="593.798828" xlink:href="#DejaVuSans-52"/>
     <use x="663.21875" xlink:href="#DejaVuSans-75"/>
     <use x="726.597656" xlink:href="#DejaVuSans-6d"/>
     <use x="824.009766" xlink:href="#DejaVuSans-6f"/>
     <use x="885.191406" xlink:href="#DejaVuSans-75"/>
     <use x="948.570312" xlink:href="#DejaVuSans-72"/>
     <use x="989.683594" xlink:href="#DejaVuSans-20"/>
     <use x="1021.470703" xlink:href="#DejaVuSans-46"/>
     <use x="1078.880859" xlink:href="#DejaVuSans-69"/>
     <use x="1106.664062" xlink:href="#DejaVuSans-72"/>
     <use x="1147.777344" xlink:href="#DejaVuSans-73"/>
     <use x="1199.876953" xlink:href="#DejaVuSans-74"/>
     <use x="1239.085938" xlink:href="#DejaVuSans-20"/>
     <use x="1270.873047" xlink:href="#DejaVuSans-41"/>
     <use x="1339.28125" xlink:href="#DejaVuSans-72"/>
     <use x="1380.378906" xlink:href="#DejaVuSans-72"/>
     <use x="1421.492188" xlink:href="#DejaVuSans-69"/>
     <use x="1449.275391" xlink:href="#DejaVuSans-76"/>
     <use x="1508.455078" xlink:href="#DejaVuSans-61"/>
     <use x="1569.734375" xlink:href="#DejaVuSans-6c"/>
     <use x="1597.517578" xlink:href="#DejaVuSans-20"/>
     <use x="1629.304688" xlink:href="#DejaVuSans-54"/>
     <use x="1690.341797" xlink:href="#DejaVuSans-69"/>
     <use x="1718.125" xlink:href="#DejaVuSans-6d"/>
     <use x="1815.537109" xlink:href="#DejaVuSans-65"/>
     <use x="1877.060547" xlink:href="#DejaVuSans-20"/>
     <use x="1908.847656" xlink:href="#DejaVuSans-55"/>
     <use x="1982.041016" xlink:href="#DejaVuSans-73"/>
     <use x="2034.140625" xlink:href="#DejaVuSans-65"/>
    </g>
    <!--  -->
    <g transform="translate(313.65 37.2)scale(0.2 -0.2)"/>
   </g>
  </g>
 </g>
 <defs>
  <clipPath id="p9657fc090d">
   <rect height="271.8" width="474.3" x="76.5" y="43.2"/>
  </clipPath>
 </defs>
</svg>
